<svg width="276" height="276" viewBox="0 0 276 276" fill="none" xmlns="http://www.w3.org/2000/svg">
<path opacity="0.7" d="M37.4979 92.2314C37.4979 92.2314 22.1098 131.969 43.7339 171.997C65.3579 212.026 109.907 233.16 145.561 251.236C181.214 269.311 218.238 260.509 235.831 230.901C253.425 201.293 229.293 180.157 229.264 137.934C229.236 95.7117 235.583 84.5326 212.725 48.8613C189.866 13.1894 133.756 5.2947 91.34 31.7515C48.9243 58.2083 37.4979 92.2314 37.4979 92.2314Z" fill="white"/>
<path d="M72.8883 236.02C85.9155 249.773 117.898 244.736 131.751 236.02C176.717 207.727 255.535 160.634 259.102 92.4069C260.618 63.407 235.048 48.1801 224.363 43.7128C198.705 32.9846 170.556 29.7643 142.773 28.5217C113.754 27.224 82.6255 28.2347 56.4894 42.3929C46.5899 47.7556 37.2506 54.6335 30.8573 64.0225C24.363 73.5599 20.6266 84.9179 19.6352 96.3824C18.0366 114.875 23.0118 133.417 30.535 150.386C38.0582 167.354 48.0913 183.066 57.2998 199.182C63.3078 209.697 61.9128 224.433 72.8883 236.02Z" fill="#92E3A9"/>
<path opacity="0.7" d="M72.8883 236.02C85.9155 249.773 117.898 244.736 131.751 236.02C176.717 207.727 255.535 160.634 259.102 92.4069C260.618 63.407 235.048 48.1801 224.363 43.7128C198.705 32.9846 170.556 29.7643 142.773 28.5217C113.754 27.224 82.6255 28.2347 56.4894 42.3929C46.5899 47.7556 37.2506 54.6335 30.8573 64.0225C24.363 73.5599 20.6266 84.9179 19.6352 96.3824C18.0366 114.875 23.0118 133.417 30.535 150.386C38.0582 167.354 48.0913 183.066 57.2998 199.182C63.3078 209.697 61.9128 224.433 72.8883 236.02Z" fill="white"/>
<path d="M71.8881 96.6459L45.5025 88.6502C44.4785 88.3399 43.8995 87.258 44.2102 86.2335L48.9182 70.6975C49.2285 69.6735 50.3104 69.0945 51.3349 69.4052L77.7205 77.4009C78.7444 77.7112 79.3235 78.7931 79.0127 79.8171L74.3047 95.3531C73.9939 96.3771 72.912 96.9561 71.8881 96.6459Z" stroke="#263238" stroke-miterlimit="10"/>
<path d="M48.1212 73.3262L78.2156 82.4452" stroke="#263238" stroke-miterlimit="10"/>
<path d="M47.2054 76.3484L77.2999 85.468" stroke="#263238" stroke-miterlimit="10"/>
<path d="M68.146 91.1143C67.9843 91.6481 68.0605 92.1957 68.3155 92.6483C67.8866 92.8641 67.3677 92.9204 66.866 92.7686C65.8304 92.4551 65.2436 91.3654 65.5572 90.3304C65.8707 89.2949 66.9653 88.7098 68.0009 89.0233C68.5026 89.1757 68.9017 89.5157 69.1385 89.933C68.6749 90.1671 68.3072 90.5805 68.146 91.1143Z" stroke="#263238" stroke-miterlimit="10"/>
<path d="M71.8936 92.2476C71.58 93.282 70.4871 93.8671 69.4521 93.5536C68.4171 93.2401 67.8325 92.1471 68.146 91.1121C68.4596 90.0771 69.5525 89.4925 70.5875 89.8061C71.622 90.1202 72.2066 91.2131 71.8936 92.2476Z" stroke="#263238" stroke-miterlimit="10"/>
<path d="M252.901 131.597L231.015 124.965C229.991 124.655 229.412 123.573 229.723 122.548L233.559 109.89C233.869 108.866 234.951 108.287 235.975 108.598L257.861 115.229C258.885 115.54 259.464 116.621 259.153 117.646L255.317 130.304C255.007 131.328 253.925 131.907 252.901 131.597Z" stroke="#263238" stroke-miterlimit="10"/>
<path d="M232.965 111.848L258.56 119.604" stroke="#263238" stroke-miterlimit="10"/>
<path d="M232.186 114.418L257.781 122.174" stroke="#263238" stroke-miterlimit="10"/>
<path d="M249.996 126.976C249.858 127.43 249.923 127.896 250.14 128.281C249.775 128.465 249.334 128.512 248.907 128.383C248.027 128.116 247.527 127.19 247.794 126.309C248.061 125.429 248.992 124.931 249.873 125.197C250.299 125.327 250.639 125.616 250.84 125.971C250.446 126.171 250.133 126.523 249.996 126.976Z" stroke="#263238" stroke-miterlimit="10"/>
<path d="M253.182 127.94C252.916 128.82 251.986 129.318 251.106 129.051C250.227 128.784 249.729 127.855 249.996 126.975C250.262 126.095 251.192 125.598 252.072 125.864C252.952 126.131 253.449 127.06 253.182 127.94Z" stroke="#263238" stroke-miterlimit="10"/>
<path d="M222.825 54.7647L190.873 69.3948L198.483 86.015L230.435 71.3849L222.825 54.7647Z" stroke="#263238" stroke-miterlimit="10"/>
<path d="M227.693 68.974L222.858 58.4137C221.917 58.8448 220.805 58.4308 220.374 57.4902L194.548 69.3157C194.979 70.2569 194.565 71.3686 193.624 71.7997L198.46 82.3595C199.401 81.9284 200.513 82.3424 200.944 83.283L226.77 71.4575C226.339 70.5174 226.752 69.4052 227.693 68.974Z" stroke="#263238" stroke-miterlimit="10"/>
<path d="M213.584 74.1992C215.688 72.5829 216.083 69.5669 214.467 67.4629C212.85 65.359 209.834 64.9636 207.73 66.58C205.626 68.1963 205.231 71.2122 206.847 73.3162C208.464 75.4202 211.48 75.8155 213.584 74.1992Z" stroke="#263238" stroke-miterlimit="10"/>
<path d="M211.962 72.7204L212.322 73.5048L211.981 73.661L211.625 72.8833C210.94 73.1554 210.2 73.1968 209.709 73.0091L209.729 72.5294C210.183 72.6928 210.836 72.6752 211.425 72.4466L210.603 70.6521C209.768 70.8116 208.897 70.9297 208.485 70.0289C208.185 69.3736 208.397 68.592 209.403 68.0317L209.043 67.2468L209.385 67.0906L209.741 67.8683C210.262 67.6547 210.842 67.5703 211.319 67.6575L211.333 68.1383C210.839 68.0676 210.342 68.1383 209.937 68.2983L210.765 70.1067C211.62 69.9378 212.533 69.7843 212.951 70.699C213.255 71.3608 213.02 72.1624 211.962 72.7204ZM210.384 70.1746L209.603 68.4689C208.929 68.852 208.78 69.3576 208.977 69.7876C209.215 70.306 209.759 70.2872 210.384 70.1746ZM212.466 70.9546C212.22 70.4158 211.637 70.4594 210.985 70.5847L211.766 72.2904C212.491 71.8924 212.666 71.3912 212.466 70.9546Z" fill="#263238"/>
<path d="M45.8173 130.187L21.3398 132.303L22.4401 145.035L46.9176 142.919L45.8173 130.187Z" stroke="#263238" stroke-miterlimit="10"/>
<path d="M45.6797 140.684L44.9803 132.595C44.2594 132.657 43.6246 132.123 43.5622 131.402L23.7785 133.113C23.8409 133.834 23.3071 134.469 22.5862 134.531L23.2856 142.621C24.0065 142.558 24.6413 143.092 24.7037 143.813L44.4873 142.102C44.425 141.381 44.9593 140.747 45.6797 140.684Z" stroke="#263238" stroke-miterlimit="10"/>
<path d="M37.4792 137.318C37.6387 139.166 36.2703 140.794 34.4222 140.954C32.5741 141.113 30.9462 139.745 30.7867 137.897C30.6266 136.049 31.9956 134.421 33.8437 134.261C35.6918 134.102 37.3196 135.47 37.4792 137.318Z" stroke="#263238" stroke-miterlimit="10"/>
<path d="M34.4426 139.45L34.4945 140.051L34.2334 140.074L34.182 139.478C33.6676 139.496 33.1702 139.35 32.8915 139.111L33.0173 138.8C33.2779 139.015 33.7117 139.156 34.1533 139.144L34.0346 137.769C33.4473 137.678 32.8467 137.551 32.7871 136.861C32.7435 136.359 33.067 135.894 33.8613 135.762L33.8094 135.161L34.0705 135.138L34.1219 135.734C34.5154 135.716 34.9173 135.797 35.211 135.966L35.1072 136.286C34.7981 136.123 34.4553 136.053 34.1506 136.063L34.2704 137.449C34.8731 137.539 35.5096 137.652 35.5703 138.353C35.6134 138.859 35.2695 139.331 34.4426 139.45ZM34.0021 137.403L33.8889 136.097C33.3546 136.191 33.1376 136.488 33.1664 136.818C33.2011 137.215 33.5643 137.33 34.0021 137.403ZM35.1894 138.406C35.1536 137.993 34.76 137.885 34.3013 137.815L34.4144 139.121C34.9852 139.029 35.2181 138.741 35.1894 138.406Z" fill="#263238"/>
<path d="M245.271 62.2187C247.924 62.2187 250.075 60.0679 250.075 57.4147C250.075 54.7614 247.924 52.6106 245.271 52.6106C242.617 52.6106 240.467 54.7614 240.467 57.4147C240.467 60.0679 242.617 62.2187 245.271 62.2187Z" stroke="#263238" stroke-miterlimit="10"/>
<path d="M245.485 60.0792V60.942H245.109V60.0864C244.374 60.0489 243.684 59.7784 243.315 59.4036L243.534 58.9758C243.879 59.3136 244.479 59.5686 245.109 59.6062V57.6322C244.284 57.4296 243.443 57.1746 243.443 56.1838C243.443 55.4634 243.961 54.8402 245.109 54.7502V53.8875H245.485V54.743C246.048 54.7657 246.61 54.9307 247.008 55.2084L246.821 55.6511C246.4 55.3812 245.92 55.2387 245.485 55.2161V57.205C246.333 57.4076 247.226 57.6477 247.226 58.6534C247.226 59.3815 246.678 60.0119 245.485 60.0792ZM245.109 57.1073V55.231C244.337 55.2989 243.991 55.6964 243.991 56.1694C243.991 56.7396 244.494 56.9494 245.109 57.1073ZM246.678 58.6832C246.678 58.0904 246.13 57.8878 245.485 57.7299V59.6062C246.31 59.546 246.678 59.1635 246.678 58.6832Z" fill="#263238"/>
<path d="M213.639 121.65C216.221 121.042 217.821 118.455 217.213 115.872C216.604 113.29 214.017 111.69 211.435 112.299C208.852 112.907 207.252 115.494 207.861 118.076C208.47 120.659 211.056 122.259 213.639 121.65Z" stroke="#263238" stroke-miterlimit="10"/>
<path d="M211.33 119.362L210.878 120.097L210.559 119.9L211.006 119.172C210.399 118.754 209.953 118.163 209.836 117.65L210.245 117.4C210.362 117.869 210.74 118.401 211.258 118.763L212.291 117.081C211.694 116.476 211.112 115.819 211.63 114.975C212.008 114.361 212.775 114.102 213.8 114.627L214.252 113.891L214.572 114.088L214.124 114.817C214.592 115.131 214.985 115.566 215.178 116.011L214.786 116.29C214.57 115.839 214.235 115.467 213.876 115.219L212.835 116.914C213.451 117.53 214.086 118.202 213.559 119.059C213.179 119.679 212.382 119.929 211.33 119.362ZM212.567 116.634L213.549 115.035C212.856 114.688 212.353 114.846 212.105 115.249C211.807 115.734 212.125 116.177 212.567 116.634ZM213.077 118.798C213.388 118.292 213.027 117.833 212.56 117.361L211.578 118.959C212.312 119.34 212.826 119.207 213.077 118.798Z" fill="#263238"/>
<path d="M143.621 24.2808C144.724 26.6941 143.661 29.5441 141.248 30.647C138.835 31.7499 135.985 30.6873 134.882 28.2739C133.779 25.8606 134.841 23.0101 137.255 21.9077C139.668 20.8048 142.519 21.8674 143.621 24.2808Z" stroke="#263238" stroke-miterlimit="10"/>
<path d="M140.554 28.6117L140.912 29.3967L140.571 29.5529L140.216 28.7746C139.531 29.0462 138.791 29.087 138.3 28.8988L138.321 28.4191C138.775 28.583 139.427 28.5654 140.016 28.3374L139.196 26.5423C138.361 26.7013 137.491 26.8183 137.079 25.9174C136.78 25.2622 136.991 24.48 137.998 23.9214L137.64 23.1364L137.981 22.9802L138.336 23.7585C138.857 23.5455 139.438 23.4616 139.915 23.5488L139.929 24.029C139.434 23.9584 138.938 24.0279 138.533 24.1886L139.359 25.9975C140.215 25.8296 141.127 25.6767 141.545 26.5914C141.847 27.2533 141.611 28.0542 140.554 28.6117ZM138.977 26.0642L138.197 24.358C137.522 24.7411 137.373 25.2462 137.569 25.6762C137.807 26.1951 138.352 26.1769 138.977 26.0642ZM141.058 26.8459C140.812 26.3066 140.23 26.3502 139.577 26.4749L140.356 28.1812C141.082 27.7837 141.258 27.2831 141.058 26.8459Z" fill="#263238"/>
<path d="M127.445 218.773C129.101 222.397 127.506 226.678 123.882 228.334C120.258 229.99 115.977 228.394 114.321 224.77C112.665 221.146 114.261 216.866 117.885 215.21C121.51 213.554 125.79 215.15 127.445 218.773Z" stroke="#263238" stroke-miterlimit="10"/>
<path d="M122.839 225.277L123.378 226.456L122.865 226.69L122.331 225.521C121.303 225.929 120.192 225.99 119.455 225.708L119.485 224.987C120.167 225.234 121.147 225.207 122.032 224.865L120.8 222.169C119.546 222.407 118.239 222.583 117.621 221.23C117.171 220.246 117.49 219.072 119.002 218.233L118.463 217.055L118.975 216.821L119.509 217.989C120.292 217.669 121.163 217.543 121.88 217.674L121.9 218.395C121.157 218.289 120.413 218.394 119.804 218.634L121.045 221.351C122.33 221.099 123.7 220.869 124.328 222.242C124.781 223.237 124.426 224.44 122.839 225.277ZM120.471 221.452L119.3 218.889C118.287 219.464 118.063 220.223 118.358 220.869C118.714 221.648 119.532 221.621 120.471 221.452ZM123.597 222.626C123.227 221.817 122.352 221.881 121.373 222.069L122.543 224.631C123.633 224.034 123.896 223.282 123.597 222.626Z" fill="#263238"/>
<path d="M24.0975 106.661C21.1046 109.291 16.5462 108.996 13.9165 106.003C11.2867 103.01 11.5815 98.4515 14.5744 95.8217C17.5674 93.192 22.1258 93.4868 24.7555 96.4797C27.3858 99.4727 27.091 104.031 24.0975 106.661Z" stroke="#263238" stroke-miterlimit="10"/>
<path d="M16.5429 104.123L15.5691 104.979L15.1971 104.556L16.162 103.708C15.4748 102.841 15.0961 101.794 15.1546 101.007L15.8529 100.828C15.8137 101.552 16.1211 102.483 16.7041 103.231L18.9308 101.275C18.3407 100.142 17.7959 98.9417 18.9132 97.9597C19.7257 97.2454 20.9423 97.2129 22.1816 98.419L23.1553 97.5634L23.5273 97.9868L22.5624 98.8346C23.0946 99.4921 23.4666 100.29 23.5472 101.014L22.8622 101.241C22.7501 100.499 22.4349 99.8161 22.0292 99.3033L19.7853 101.274C20.3969 102.432 21.0113 103.678 19.877 104.674C19.0556 105.396 17.8014 105.402 16.5429 104.123ZM19.5237 100.754L21.64 98.8948C20.7977 98.09 20.0067 98.0938 19.4729 98.563C18.8298 99.1283 19.0915 99.9039 19.5237 100.754ZM19.3001 104.085C19.9686 103.498 19.6545 102.679 19.193 101.795L17.0767 103.655C17.9621 104.526 18.7581 104.562 19.3001 104.085Z" fill="#263238"/>
<path d="M55.9788 165.119C57.2103 166.597 57.0105 168.793 55.5323 170.025C54.054 171.256 51.8576 171.056 50.6261 169.578C49.3946 168.1 49.5944 165.904 51.0727 164.672C52.5509 163.441 54.7473 163.64 55.9788 165.119Z" stroke="#263238" stroke-miterlimit="10"/>
<path d="M54.6585 168.734L55.0592 169.214L54.85 169.388L54.4526 168.912C54.0253 169.233 53.5153 169.402 53.136 169.364L53.0588 169.025C53.4076 169.053 53.8608 168.916 54.2296 168.644L53.3132 167.545C52.759 167.815 52.1723 168.063 51.7124 167.511C51.3779 167.11 51.3774 166.522 51.9752 165.939L51.5744 165.458L51.7836 165.284L52.1805 165.761C52.5046 165.512 52.8948 165.343 53.2453 165.313L53.3464 165.646C52.987 165.691 52.653 165.835 52.4002 166.024L53.3232 167.132C53.8895 166.851 54.4989 166.57 54.9654 167.131C55.3043 167.537 55.2916 168.142 54.6585 168.734ZM53.0698 167.252L52.1988 166.207C51.7997 166.603 51.7914 166.985 52.0111 167.248C52.276 167.566 52.6536 167.45 53.0698 167.252ZM54.675 167.402C54.4001 167.072 54.0005 167.213 53.5683 167.425L54.4393 168.47C54.871 168.054 54.898 167.67 54.675 167.402Z" fill="#263238"/>
<path d="M164.267 236.901C165.498 238.379 165.299 240.575 163.82 241.807C162.342 243.038 160.146 242.839 158.914 241.36C157.683 239.882 157.882 237.686 159.361 236.454C160.839 235.223 163.035 235.423 164.267 236.901Z" stroke="#263238" stroke-miterlimit="10"/>
<path d="M162.946 240.516L163.347 240.996L163.138 241.17L162.741 240.694C162.314 241.015 161.804 241.184 161.425 241.146L161.347 240.807C161.696 240.835 162.149 240.698 162.518 240.426L161.602 239.327C161.048 239.597 160.461 239.845 160.001 239.293C159.667 238.892 159.666 238.304 160.264 237.721L159.864 237.24L160.073 237.066L160.47 237.543C160.794 237.294 161.184 237.125 161.534 237.095L161.635 237.428C161.276 237.473 160.942 237.617 160.689 237.806L161.612 238.914C162.179 238.633 162.788 238.352 163.255 238.913C163.592 239.319 163.58 239.924 162.946 240.516ZM161.358 239.034L160.487 237.989C160.088 238.385 160.079 238.767 160.299 239.03C160.564 239.348 160.942 239.232 161.358 239.034ZM162.963 239.184C162.688 238.854 162.289 238.995 161.856 239.207L162.727 240.252C163.159 239.836 163.186 239.452 162.963 239.184Z" fill="#263238"/>
<path d="M68.1494 35.9174C69.3809 37.3957 69.1811 39.5921 67.7028 40.8236C66.2245 42.0551 64.0281 41.8553 62.7966 40.3771C61.5651 38.8988 61.7649 36.7024 63.2432 35.4709C64.7209 34.2394 66.9179 34.4392 68.1494 35.9174Z" stroke="#263238" stroke-miterlimit="10"/>
<path d="M66.8285 39.5325L67.2292 40.0133L67.02 40.1872L66.6231 39.7108C66.1959 40.0315 65.6858 40.201 65.3066 40.1629L65.2293 39.8234C65.5782 39.8516 66.0314 39.7147 66.4001 39.4431L65.4838 38.3435C64.9296 38.614 64.3428 38.8618 63.883 38.3098C63.5485 37.9085 63.5479 37.3212 64.1463 36.7377L63.7455 36.257L63.9547 36.0825L64.3516 36.5595C64.6757 36.3111 65.0659 36.1416 65.4164 36.1118L65.5175 36.4452C65.1576 36.4899 64.8241 36.6334 64.5713 36.8228L65.4943 37.9306C66.0606 37.6502 66.67 37.3692 67.1365 37.9295C67.4749 38.3358 67.4616 38.9413 66.8285 39.5325ZM65.2404 38.051L64.3693 37.0055C63.9702 37.4018 63.9619 37.7838 64.1816 38.0471C64.4466 38.365 64.8241 38.2486 65.2404 38.051ZM66.845 38.2011C66.5701 37.871 66.1705 38.0123 65.7383 38.2237L66.6093 39.2692C67.041 38.8525 67.068 38.4688 66.845 38.2011Z" fill="#263238"/>
<path opacity="0.2" d="M143.967 180.949C143.967 180.949 139.713 202.554 113.609 207.424C113.609 207.424 106.791 212.861 104.522 216.082C102.254 219.302 90.1505 224.771 77.8585 241.836C65.5666 258.9 47.2231 204.704 47.2231 204.704L87.7277 152.096L143.967 180.949Z" fill="black" fill-opacity="0.7"/>
<path d="M167.169 79.5295C167.169 79.5295 181.245 72.6494 184.343 73.8373C187.439 75.0252 190.396 82.1427 178.571 88.961C166.747 95.7793 170.266 108.48 170.266 108.48H178.712C178.712 108.48 183.779 110.545 185.75 113.197C187.721 115.848 189.128 124.907 190.255 127.979C191.381 131.05 190.818 134.12 187.721 135.119C187.721 135.119 185.75 143.709 186.313 147.515C186.876 151.321 186.595 153.777 182.935 154.238C179.275 154.7 175.615 151.592 175.896 147.515L173.081 157.715L175.052 161.636C175.052 161.636 178.712 162.864 182.654 166.242C186.595 169.62 190.537 170.543 189.411 174.305C188.284 178.067 186.032 182.126 174.207 177.422C162.383 172.717 152.529 154.238 152.529 154.238L145.426 89.7978L167.169 79.5295Z" fill="white"/>
<path opacity="0.4" d="M181.985 116.55C175.602 125.251 182.662 135.266 182.662 135.266C182.662 135.266 178.247 137.73 178.122 144.012C178.071 146.621 178.729 150.274 179.512 153.651C177.319 152.587 175.703 150.274 175.899 147.514L173.079 157.715L175.05 161.634C175.05 161.634 177.67 162.512 180.856 164.825C179.105 168.844 178.573 173.812 178.728 178.935C177.403 178.594 175.903 178.102 174.207 177.424C162.381 172.718 152.531 154.238 152.531 154.238L145.426 89.7962L167.168 79.5301C167.168 79.5301 174.86 75.7721 180.123 74.2866C179.717 79.2138 180.685 84.3071 181.372 87.1471C180.549 87.7543 179.616 88.3615 178.573 88.9632C166.746 95.7771 170.263 108.482 170.263 108.482H178.713C178.713 108.482 183.53 110.444 185.592 113.003C184.428 113.745 183.209 114.879 181.985 116.55Z" fill="#92E3A9"/>
<path d="M145.15 170.55C145.15 170.55 129.836 200.575 102.234 207.384C102.234 207.384 101.181 213.325 96.5089 215.874C94.015 217.234 83.9498 232.322 75.1084 246.091L26.1869 216.08C29.2025 213.1 32.6348 209.667 36.1466 206.085C46.3575 195.673 57.2507 183.977 60.5875 178.232C63.5678 173.099 67.3363 164.188 70.6229 155.813C74.8275 145.105 78.2499 135.266 78.2499 135.266L94.5675 117.127L120.223 88.6072L121.332 92.2548L145.15 170.55Z" fill="white"/>
<path opacity="0.4" d="M120.223 88.6072L145.151 170.55C145.151 170.55 129.836 200.576 102.235 207.385C102.235 207.385 101.181 213.326 96.5095 215.875C94.2717 217.094 85.9321 229.377 77.8591 241.836C80.8498 231.57 89.5151 215.202 89.5151 215.202C83.9554 208.619 85.576 201.68 87.7989 203.657C89.9517 205.579 95.6164 211.183 95.9729 211.534C93.5143 208.639 92.9474 204.108 92.9474 204.108C92.9474 204.108 99.8364 208.689 100.393 201.328C100.95 193.967 96.2639 176.049 96.2639 176.049L83.9857 128.894L120.223 88.6072Z" fill="#92E3A9"/>
<path d="M145.426 89.7978L167.169 79.5295C167.169 79.5295 181.245 72.6494 184.343 73.8373C187.439 75.0252 190.396 82.1427 178.571 88.961C166.747 95.7793 170.266 108.48 170.266 108.48H178.712C178.712 108.48 183.779 110.545 185.75 113.197C187.721 115.848 189.128 124.907 190.255 127.979C191.381 131.05 190.818 134.12 187.721 135.119C187.721 135.119 185.75 143.709 186.313 147.515C186.876 151.321 186.595 153.777 182.935 154.238C179.275 154.7 175.615 151.592 175.896 147.515L173.081 157.715L175.052 161.636C175.052 161.636 178.712 162.864 182.654 166.242C186.595 169.62 190.537 170.543 189.411 174.305C188.284 178.067 186.032 182.126 174.207 177.422C162.383 172.717 152.529 154.238 152.529 154.238" stroke="#263238" stroke-miterlimit="10" stroke-linecap="round" stroke-linejoin="round"/>
<path d="M187.721 135.119C183.498 136.258 178.571 135.414 176.741 127.954C174.911 120.493 178.572 112.523 180.964 111.765" stroke="#263238" stroke-miterlimit="10" stroke-linecap="round" stroke-linejoin="round"/>
<path d="M175.896 147.515C175.896 147.515 175.615 137.906 179.134 135.534" stroke="#263238" stroke-miterlimit="10" stroke-linecap="round" stroke-linejoin="round"/>
<path opacity="0.4" d="M73.2073 195.247C73.2073 195.247 62.891 193.963 60.5881 189.346C58.6815 185.528 48.3602 199.813 36.1472 206.085C46.3581 195.673 57.2512 183.977 60.5881 178.232C63.5683 173.099 67.3368 164.188 70.6234 155.813C70.6234 155.818 70.6234 155.818 70.6234 155.823C70.4578 162.768 66.755 173.4 67.8137 178.934C67.8137 178.934 63.8399 179.918 64.6375 184.314C65.4297 188.704 73.2073 195.247 73.2073 195.247Z" fill="#92E3A9"/>
<path d="M145.149 170.55C145.149 170.55 129.837 200.577 102.233 207.386C102.233 207.386 101.181 213.326 96.5101 215.874C94.0172 217.235 83.9521 232.321 75.1074 246.093" stroke="#263238" stroke-miterlimit="10" stroke-linecap="round" stroke-linejoin="round"/>
<path d="M26.1869 216.082C37.9749 204.428 56.1003 185.952 60.5864 178.231C67.3782 166.542 78.2515 135.265 78.2515 135.265L120.225 88.6084" stroke="#263238" stroke-miterlimit="10" stroke-linecap="round" stroke-linejoin="round"/>
<path d="M96.265 124.237C96.265 124.237 102.711 130.012 104.522 135.265" stroke="#263238" stroke-miterlimit="10" stroke-linecap="round" stroke-linejoin="round"/>
<path d="M172.368 195.247H102.994C100.943 195.247 99.2805 193.584 99.2805 191.533V43.8537C99.2805 41.8025 100.943 40.1399 102.994 40.1399H172.368C174.419 40.1399 176.081 41.8025 176.081 43.8537V191.534C176.081 193.584 174.419 195.247 172.368 195.247Z" fill="#263238"/>
<path d="M152.907 44.362L151.441 47.0547C151.12 47.6448 150.502 48.0124 149.829 48.0124H125.533C124.86 48.0124 124.242 47.6453 123.921 47.0547L122.455 44.362C122.133 43.7719 121.515 43.4043 120.843 43.4043H103.881C102.868 43.4043 102.046 44.2257 102.046 45.2397V190.448C102.046 191.461 102.868 192.283 103.881 192.283H171.48C172.493 192.283 173.315 191.462 173.315 190.448V45.2397C173.315 44.2262 172.494 43.4043 171.48 43.4043H154.519C153.847 43.4043 153.229 43.7719 152.907 44.362Z" fill="#92E3A9" stroke="#263238" stroke-miterlimit="10" stroke-linecap="round" stroke-linejoin="round"/>
<path d="M132.416 45.6677C132.963 45.6677 133.407 45.2241 133.407 44.6769C133.407 44.1296 132.963 43.686 132.416 43.686C131.869 43.686 131.425 44.1296 131.425 44.6769C131.425 45.2241 131.869 45.6677 132.416 45.6677Z" stroke="white" stroke-miterlimit="10"/>
<path d="M143.936 44.6768C143.936 45.0157 143.661 45.2906 143.322 45.2906C142.983 45.2906 142.709 45.0157 142.709 44.6768C142.709 44.3379 142.983 44.063 143.322 44.063C143.662 44.063 143.936 44.3379 143.936 44.6768Z" stroke="white" stroke-miterlimit="10"/>
<path d="M141.183 44.2922H135.182C134.97 44.2922 134.797 44.4645 134.797 44.677C134.797 44.8895 134.97 45.0617 135.182 45.0617H141.183C141.396 45.0617 141.568 44.8895 141.568 44.677C141.568 44.4645 141.396 44.2922 141.183 44.2922Z" fill="white"/>
<path d="M114.615 47.0967H108.142V49.8478H114.615V47.0967Z" stroke="#263238" stroke-miterlimit="10" stroke-linecap="round" stroke-linejoin="round"/>
<path d="M115.619 47.5598H114.615V49.3847H115.619V47.5598Z" stroke="#263238" stroke-miterlimit="10" stroke-linecap="round" stroke-linejoin="round"/>
<path d="M160.499 48.8503H159.35V49.8478H160.499V48.8503Z" stroke="#263238" stroke-miterlimit="10" stroke-linecap="round" stroke-linejoin="round"/>
<path d="M162.739 47.8469H161.59V49.8479H162.739V47.8469Z" stroke="#263238" stroke-miterlimit="10" stroke-linecap="round" stroke-linejoin="round"/>
<path d="M164.98 46.8438H163.831V49.8483H164.98V46.8438Z" stroke="#263238" stroke-miterlimit="10" stroke-linecap="round" stroke-linejoin="round"/>
<path d="M167.22 45.8403H166.071V49.8484H167.22V45.8403Z" stroke="#263238" stroke-miterlimit="10" stroke-linecap="round" stroke-linejoin="round"/>
<path opacity="0.5" d="M172.854 75.4939H102.508V142.587H172.854V75.4939Z" fill="white"/>
<path d="M121.938 64.7759V65.9439C121.938 67.3813 121.245 68.1646 119.833 68.1646H119.166V71.5406H117.754V62.5552H119.833C121.245 62.5546 121.938 63.3379 121.938 64.7759ZM119.166 63.8386V66.8807H119.833C120.282 66.8807 120.526 66.6753 120.526 66.0333V64.6853C120.526 64.0434 120.282 63.838 119.833 63.838L119.166 63.8386Z" fill="#263238"/>
<path d="M126.997 71.5406H125.572L125.328 69.9106H123.596L123.352 71.5406H122.055L123.492 62.5552H125.559L126.997 71.5406ZM123.776 68.6907H125.136L124.468 64.1466H124.443L123.776 68.6907Z" fill="#263238"/>
<path d="M128.346 68.5619L126.562 62.5544H128.038L129.103 66.6497H129.129L130.194 62.5544H131.542L129.758 68.5619V71.5399H128.346V68.5619Z" fill="#263238"/>
<path d="M135.087 68.9345H135.112L136.062 62.5544H138.026V71.5399H136.691V65.0959H136.665L135.715 71.5399H134.381L133.354 65.1858H133.328V71.5399H132.096V62.5544H134.06L135.087 68.9345Z" fill="#263238"/>
<path d="M140.467 66.3419H142.406V67.6253H140.467V70.2572H142.906V71.5406H139.055V62.5552H142.906V63.8391H140.467V66.3419Z" fill="#263238"/>
<path d="M145.063 65.0326H145.038V71.5406H143.767V62.5552H145.538L146.963 67.9339H146.989V62.5552H148.247V71.5406H146.796L145.063 65.0326Z" fill="#263238"/>
<path d="M148.851 62.5544H153.216V63.8384H151.739V71.5405H150.327V63.8384H148.851L148.851 62.5544Z" fill="#263238"/>
<path d="M155.733 62.4524C157.106 62.4524 157.812 63.2738 157.812 64.7117V64.9938H156.478V64.6218C156.478 63.9798 156.221 63.7363 155.772 63.7363C155.323 63.7363 155.066 63.9803 155.066 64.6218C155.066 65.2764 155.348 65.7644 156.273 66.5731C157.454 67.613 157.826 68.3571 157.826 69.3844C157.826 70.8218 157.107 71.6437 155.721 71.6437C154.334 71.6437 153.616 70.8224 153.616 69.3844V68.8324H154.95V69.4744C154.95 70.1164 155.233 70.3477 155.682 70.3477C156.131 70.3477 156.414 70.1164 156.414 69.4744C156.414 68.8197 156.131 68.3323 155.207 67.5231C154.026 66.4836 153.654 65.739 153.654 64.7123C153.653 63.2738 154.36 62.4524 155.733 62.4524Z" fill="#263238"/>
<path d="M167.22 83.6204H108.142V92.4485H167.22V83.6204Z" fill="white" stroke="#263238" stroke-miterlimit="10" stroke-linecap="round" stroke-linejoin="round"/>
<path d="M167.22 100.179H108.142V109.007H167.22V100.179Z" fill="white" stroke="#263238" stroke-miterlimit="10" stroke-linecap="round" stroke-linejoin="round"/>
<path d="M167.22 115.232H108.142V124.06H167.22V115.232Z" fill="white" stroke="#263238" stroke-miterlimit="10" stroke-linecap="round" stroke-linejoin="round"/>
<path d="M136.111 127.274H108.142V137.608H136.111V127.274Z" fill="white" stroke="#263238" stroke-miterlimit="10" stroke-linecap="round" stroke-linejoin="round"/>
<path d="M167.22 127.274H139.251V137.608H167.22V127.274Z" fill="white" stroke="#263238" stroke-miterlimit="10" stroke-linecap="round" stroke-linejoin="round"/>
<path d="M111.825 82.083V82.322H109.978V79.71H111.769V79.949H110.254V80.878H111.605V81.1131H110.254V82.083H111.825Z" fill="#263238"/>
<path d="M115.656 81.1838V82.3221H115.391V81.2103C115.391 80.7958 115.182 80.5833 114.828 80.5833C114.425 80.5833 114.171 80.8444 114.171 81.292V82.3221H113.906V81.2103C113.906 80.7958 113.697 80.5833 113.339 80.5833C112.94 80.5833 112.682 80.8444 112.682 81.292V82.3221H112.418V80.3591H112.671V80.7174C112.809 80.4822 113.063 80.3442 113.392 80.3442C113.716 80.3442 113.97 80.4822 114.09 80.7582C114.231 80.5043 114.511 80.3442 114.866 80.3442C115.343 80.3442 115.656 80.6202 115.656 81.1838Z" fill="#263238"/>
<path d="M117.856 81.1056V82.3222H117.602V82.0164C117.483 82.2179 117.251 82.3409 116.926 82.3409C116.482 82.3409 116.21 82.1097 116.21 81.7702C116.21 81.4682 116.404 81.2143 116.967 81.2143H117.59V81.0951C117.59 80.7595 117.4 80.5768 117.034 80.5768C116.781 80.5768 116.542 80.6662 116.381 80.808L116.262 80.6104C116.46 80.4426 116.751 80.3455 117.061 80.3455C117.568 80.3444 117.856 80.5983 117.856 81.1056ZM117.591 81.7326V81.4119H116.975C116.595 81.4119 116.471 81.561 116.471 81.7624C116.471 81.9904 116.654 82.1317 116.967 82.1317C117.266 82.1317 117.486 81.9899 117.591 81.7326Z" fill="#263238"/>
<path d="M118.515 79.7398C118.515 79.6388 118.601 79.5532 118.709 79.5532C118.817 79.5532 118.904 79.6349 118.904 79.7359C118.904 79.8441 118.821 79.9302 118.709 79.9302C118.601 79.9302 118.515 79.8441 118.515 79.7398ZM118.575 80.3591H118.84V82.3221H118.575V80.3591Z" fill="#263238"/>
<path d="M119.578 79.5532H119.843V82.3221H119.578V79.5532Z" fill="#263238"/>
<path d="M113.651 88.8594V89.0984H111.804V86.4863H113.595V86.7253H112.08V87.6544H113.431V87.8895H112.08V88.8594H113.651Z" fill="#263238"/>
<path d="M117.482 87.9607V89.0989H117.217V87.9872C117.217 87.5726 117.009 87.3601 116.654 87.3601C116.251 87.3601 115.997 87.6212 115.997 88.0689V89.0989H115.732V87.9872C115.732 87.5726 115.524 87.3601 115.165 87.3601C114.766 87.3601 114.509 87.6212 114.509 88.0689V89.0989H114.244V87.136H114.498V87.4942C114.636 87.2591 114.889 87.1211 115.218 87.1211C115.542 87.1211 115.796 87.2591 115.916 87.5351C116.057 87.2817 116.337 87.1211 116.692 87.1211C117.169 87.1211 117.482 87.3971 117.482 87.9607Z" fill="#263238"/>
<path d="M119.681 87.8819V89.0985H119.427V88.7927C119.308 88.9942 119.077 89.1173 118.752 89.1173C118.308 89.1173 118.035 88.886 118.035 88.5465C118.035 88.2446 118.23 87.9907 118.793 87.9907H119.416V87.8714C119.416 87.5358 119.226 87.3531 118.861 87.3531C118.607 87.3531 118.368 87.4425 118.208 87.5844L118.088 87.3868C118.286 87.219 118.577 87.1218 118.887 87.1218C119.394 87.1213 119.681 87.3746 119.681 87.8819ZM119.417 88.509V88.1877H118.801C118.421 88.1877 118.297 88.3373 118.297 88.5383C118.297 88.7662 118.48 88.9075 118.794 88.9075C119.092 88.9081 119.312 88.7668 119.417 88.509Z" fill="#263238"/>
<path d="M120.341 86.5162C120.341 86.4151 120.427 86.3296 120.535 86.3296C120.643 86.3296 120.73 86.4113 120.73 86.5123C120.73 86.6205 120.647 86.7066 120.535 86.7066C120.427 86.7066 120.341 86.621 120.341 86.5162ZM120.401 87.1361H120.666V89.099H120.401V87.1361Z" fill="#263238"/>
<path d="M121.405 86.3301H121.669V89.0989H121.405V86.3301Z" fill="#263238"/>
<path d="M124.213 87.9607V89.0989H123.948V87.9872C123.948 87.5726 123.732 87.3601 123.359 87.3601C122.937 87.3601 122.672 87.6212 122.672 88.0689V89.0989H122.408V87.136H122.661V87.4981C122.803 87.2591 123.068 87.1211 123.407 87.1211C123.885 87.1211 124.213 87.3971 124.213 87.9607Z" fill="#263238"/>
<path d="M126.414 87.8819V89.0985H126.161V88.7927C126.042 88.9942 125.81 89.1173 125.485 89.1173C125.041 89.1173 124.769 88.886 124.769 88.5465C124.769 88.2446 124.963 87.9907 125.526 87.9907H126.149V87.8714C126.149 87.5358 125.959 87.3531 125.593 87.3531C125.34 87.3531 125.101 87.4425 124.94 87.5844L124.821 87.3868C125.019 87.219 125.31 87.1218 125.62 87.1218C126.127 87.1213 126.414 87.3746 126.414 87.8819ZM126.149 88.509V88.1877H125.533C125.153 88.1877 125.029 88.3373 125.029 88.5383C125.029 88.7662 125.212 88.9075 125.525 88.9075C125.825 88.9081 126.045 88.7668 126.149 88.509Z" fill="#263238"/>
<path d="M130.372 87.9607V89.0989H130.107V87.9872C130.107 87.5726 129.898 87.3601 129.544 87.3601C129.141 87.3601 128.887 87.6212 128.887 88.0689V89.0989H128.622V87.9872C128.622 87.5726 128.413 87.3601 128.055 87.3601C127.656 87.3601 127.398 87.6212 127.398 88.0689V89.0989H127.134V87.136H127.387V87.4942C127.525 87.2591 127.779 87.1211 128.108 87.1211C128.432 87.1211 128.686 87.2591 128.805 87.5351C128.947 87.2817 129.227 87.1211 129.581 87.1211C130.058 87.1211 130.372 87.3971 130.372 87.9607Z" fill="#263238"/>
<path d="M132.807 88.1992H131.165C131.195 88.6094 131.509 88.882 131.937 88.882C132.176 88.882 132.389 88.7965 132.538 88.6248L132.688 88.7965C132.512 89.0051 132.24 89.1172 131.93 89.1172C131.318 89.1172 130.9 88.6993 130.9 88.117C130.9 87.5346 131.307 87.1206 131.859 87.1206C132.412 87.1206 132.811 87.5274 132.811 88.117C132.811 88.1396 132.807 88.1694 132.807 88.1992ZM131.165 88.0016H132.557C132.523 87.6174 132.244 87.3486 131.859 87.3486C131.479 87.3486 131.199 87.6174 131.165 88.0016Z" fill="#263238"/>
<path d="M136.645 88.1099C136.645 88.7441 136.41 89.1173 136.026 89.1173C135.783 89.1173 135.619 88.9677 135.604 88.7104C135.454 88.9677 135.186 89.1173 134.857 89.1173C134.328 89.1173 133.932 88.7143 133.932 88.1513C133.932 87.5915 134.328 87.1924 134.857 87.1924C135.178 87.1924 135.444 87.3343 135.596 87.5838V87.2068H135.838V88.621C135.838 88.8297 135.943 88.9048 136.07 88.9048C136.301 88.9048 136.45 88.6177 136.45 88.1137C136.45 87.2372 135.819 86.6548 134.917 86.6548C134.002 86.6548 133.379 87.267 133.379 88.1513C133.379 89.0356 133.995 89.6549 134.902 89.6549C135.125 89.6549 135.402 89.6025 135.618 89.491L135.682 89.6737C135.458 89.789 135.152 89.8454 134.902 89.8454C133.875 89.8454 133.174 89.1399 133.174 88.1513C133.174 87.1588 133.887 86.4644 134.917 86.4644C135.929 86.4644 136.645 87.1323 136.645 88.1099ZM135.6 88.1507C135.6 87.6992 135.295 87.4083 134.892 87.4083C134.478 87.4083 134.179 87.703 134.179 88.1507C134.179 88.5984 134.478 88.9003 134.892 88.9003C135.295 88.9009 135.6 88.6061 135.6 88.1507Z" fill="#263238"/>
<path d="M138.912 88.1992H137.271C137.301 88.6094 137.614 88.882 138.043 88.882C138.282 88.882 138.495 88.7965 138.644 88.6248L138.793 88.7965C138.618 89.0051 138.346 89.1172 138.035 89.1172C137.423 89.1172 137.005 88.6993 137.005 88.117C137.005 87.5346 137.412 87.1206 137.964 87.1206C138.517 87.1206 138.916 87.5274 138.916 88.117C138.916 88.1396 138.912 88.1694 138.912 88.1992ZM137.271 88.0016H138.662C138.629 87.6174 138.349 87.3486 137.965 87.3486C137.584 87.3486 137.304 87.6174 137.271 88.0016Z" fill="#263238"/>
<path d="M142.695 87.9607V89.0989H142.43V87.9872C142.43 87.5726 142.222 87.3601 141.867 87.3601C141.464 87.3601 141.21 87.6212 141.21 88.0689V89.0989H140.946V87.9872C140.946 87.5726 140.736 87.3601 140.379 87.3601C139.979 87.3601 139.722 87.6212 139.722 88.0689V89.0989H139.457V87.136H139.71V87.4942C139.848 87.2591 140.102 87.1211 140.431 87.1211C140.755 87.1211 141.01 87.2591 141.129 87.5351C141.271 87.2817 141.551 87.1211 141.904 87.1211C142.382 87.1211 142.695 87.3971 142.695 87.9607Z" fill="#263238"/>
<path d="M144.895 87.8819V89.0985H144.641V88.7927C144.521 88.9942 144.291 89.1173 143.966 89.1173C143.522 89.1173 143.249 88.886 143.249 88.5465C143.249 88.2446 143.443 87.9907 144.007 87.9907H144.63V87.8714C144.63 87.5358 144.439 87.3531 144.074 87.3531C143.82 87.3531 143.581 87.4425 143.42 87.5844L143.301 87.3868C143.499 87.219 143.79 87.1218 144.099 87.1218C144.608 87.1213 144.895 87.3746 144.895 87.8819ZM144.631 88.509V88.1877H144.015C143.634 88.1877 143.511 88.3373 143.511 88.5383C143.511 88.7662 143.694 88.9075 144.007 88.9075C144.306 88.9081 144.526 88.7668 144.631 88.509Z" fill="#263238"/>
<path d="M145.554 86.5162C145.554 86.4151 145.64 86.3296 145.748 86.3296C145.857 86.3296 145.943 86.4113 145.943 86.5123C145.943 86.6205 145.861 86.7066 145.748 86.7066C145.641 86.7066 145.554 86.621 145.554 86.5162ZM145.615 87.1361H145.879V89.099H145.615V87.1361Z" fill="#263238"/>
<path d="M146.617 86.3301H146.882V89.0989H146.617V86.3301Z" fill="#263238"/>
<path d="M147.45 88.9119C147.45 88.796 147.539 88.7104 147.647 88.7104C147.756 88.7104 147.849 88.7966 147.849 88.9119C147.849 89.0273 147.756 89.1173 147.647 89.1173C147.539 89.1173 147.45 89.0279 147.45 88.9119Z" fill="#263238"/>
<path d="M148.158 88.117C148.158 87.5313 148.584 87.1206 149.169 87.1206C149.502 87.1206 149.781 87.2509 149.938 87.5087L149.741 87.6428C149.606 87.4452 149.397 87.3519 149.17 87.3519C148.741 87.3519 148.427 87.6577 148.427 88.117C148.427 88.5795 148.74 88.882 149.17 88.882C149.397 88.882 149.606 88.7926 149.741 88.595L149.938 88.7291C149.781 88.9831 149.502 89.1172 149.169 89.1172C148.584 89.1172 148.158 88.7032 148.158 88.117Z" fill="#263238"/>
<path d="M150.225 88.117C150.225 87.5346 150.65 87.1206 151.224 87.1206C151.799 87.1206 152.221 87.5346 152.221 88.117C152.221 88.6993 151.799 89.1172 151.224 89.1172C150.65 89.1172 150.225 88.6993 150.225 88.117ZM151.952 88.117C151.952 87.6583 151.642 87.3519 151.224 87.3519C150.806 87.3519 150.493 87.6577 150.493 88.117C150.493 88.5762 150.806 88.882 151.224 88.882C151.643 88.882 151.952 88.5762 151.952 88.117Z" fill="#263238"/>
<path d="M155.999 87.9607V89.0989H155.735V87.9872C155.735 87.5726 155.525 87.3601 155.171 87.3601C154.768 87.3601 154.515 87.6212 154.515 88.0689V89.0989H154.25V87.9872C154.25 87.5726 154.041 87.3601 153.683 87.3601C153.283 87.3601 153.027 87.6212 153.027 88.0689V89.0989H152.762V87.136H153.016V87.4942C153.154 87.2591 153.407 87.1211 153.736 87.1211C154.06 87.1211 154.314 87.2591 154.434 87.5351C154.575 87.2817 154.855 87.1211 155.21 87.1211C155.686 87.1211 155.999 87.3971 155.999 87.9607Z" fill="#263238"/>
<path d="M112.274 104.639L112.737 104.9L112.651 105.057L112.185 104.785V105.314H112.013L112.017 104.785L111.55 105.057L111.461 104.9L111.927 104.639L111.461 104.378L111.55 104.217L112.017 104.494L112.013 103.964H112.185V104.494L112.651 104.217L112.737 104.378L112.274 104.639Z" fill="#263238"/>
<path d="M113.788 104.639L114.251 104.9L114.165 105.057L113.699 104.785V105.314H113.527L113.531 104.785L113.065 105.057L112.975 104.9L113.442 104.639L112.975 104.378L113.065 104.217L113.531 104.494L113.527 103.964H113.699V104.494L114.165 104.217L114.251 104.378L113.788 104.639Z" fill="#263238"/>
<path d="M115.302 104.639L115.765 104.9L115.679 105.057L115.213 104.785V105.314H115.041L115.045 104.785L114.579 105.057L114.489 104.9L114.956 104.639L114.489 104.378L114.579 104.217L115.045 104.494L115.041 103.964H115.213V104.494L115.679 104.217L115.765 104.378L115.302 104.639Z" fill="#263238"/>
<path d="M116.816 104.639L117.279 104.9L117.193 105.057L116.727 104.785V105.314H116.555L116.559 104.785L116.093 105.057L116.003 104.9L116.47 104.639L116.003 104.378L116.093 104.217L116.559 104.494L116.555 103.964H116.727V104.494L117.193 104.217L117.279 104.378L116.816 104.639Z" fill="#263238"/>
<path d="M118.331 104.639L118.793 104.9L118.708 105.057L118.241 104.785V105.314H118.069L118.073 104.785L117.607 105.057L117.517 104.9L117.984 104.639L117.517 104.378L117.607 104.217L118.073 104.494L118.069 103.964H118.241V104.494L118.708 104.217L118.793 104.378L118.331 104.639Z" fill="#263238"/>
<path d="M119.845 104.639L120.307 104.9L120.222 105.057L119.755 104.785V105.314H119.584L119.587 104.785L119.121 105.057L119.032 104.9L119.498 104.639L119.032 104.378L119.121 104.217L119.587 104.494L119.584 103.964H119.755V104.494L120.222 104.217L120.307 104.378L119.845 104.639Z" fill="#263238"/>
<path d="M121.359 104.639L121.822 104.9L121.736 105.057L121.27 104.785V105.314H121.098L121.102 104.785L120.636 105.057L120.546 104.9L121.013 104.639L120.546 104.378L120.636 104.217L121.102 104.494L121.098 103.964H121.27V104.494L121.736 104.217L121.822 104.378L121.359 104.639Z" fill="#263238"/>
<path d="M122.874 104.639L123.336 104.9L123.251 105.057L122.784 104.785V105.314H122.612L122.616 104.785L122.15 105.057L122.06 104.9L122.527 104.639L122.06 104.378L122.15 104.217L122.616 104.494L122.612 103.964H122.784V104.494L123.251 104.217L123.336 104.378L122.874 104.639Z" fill="#263238"/>
<path d="M124.388 104.639L124.85 104.9L124.765 105.057L124.298 104.785V105.314H124.127L124.13 104.785L123.664 105.057L123.575 104.9L124.041 104.639L123.575 104.378L123.664 104.217L124.13 104.494L124.127 103.964H124.298V104.494L124.765 104.217L124.85 104.378L124.388 104.639Z" fill="#263238"/>
<path d="M125.902 104.639L126.364 104.9L126.279 105.057L125.812 104.785V105.314H125.641L125.645 104.785L125.178 105.057L125.089 104.9L125.555 104.639L125.089 104.378L125.178 104.217L125.645 104.494L125.641 103.964H125.812V104.494L126.279 104.217L126.364 104.378L125.902 104.639Z" fill="#263238"/>
<path d="M127.416 104.639L127.879 104.9L127.793 105.057L127.327 104.785V105.314H127.155L127.159 104.785L126.692 105.057L126.603 104.9L127.069 104.639L126.603 104.378L126.692 104.217L127.159 104.494L127.155 103.964H127.327V104.494L127.793 104.217L127.879 104.378L127.416 104.639Z" fill="#263238"/>
<path d="M112.022 97.1637C112.022 97.7195 111.619 98.0557 110.955 98.0557H110.254V98.8804H109.977V96.2683H110.955C111.619 96.2683 112.022 96.6039 112.022 97.1637ZM111.746 97.1637C111.746 96.7458 111.47 96.5068 110.948 96.5068H110.254V97.8128H110.948C111.47 97.8134 111.746 97.5743 111.746 97.1637Z" fill="#263238"/>
<path d="M114.025 97.6639V98.8805H113.771V98.5747C113.652 98.7762 113.421 98.8993 113.095 98.8993C112.652 98.8993 112.379 98.668 112.379 98.3285C112.379 98.0266 112.573 97.7727 113.137 97.7727H113.76V97.6534C113.76 97.3178 113.57 97.1351 113.204 97.1351C112.95 97.1351 112.711 97.2245 112.551 97.3664L112.432 97.1688C112.63 97.001 112.921 96.9038 113.231 96.9038C113.738 96.9027 114.025 97.1566 114.025 97.6639ZM113.76 98.291V97.9697H113.144C112.764 97.9697 112.64 98.1193 112.64 98.3202C112.64 98.5482 112.823 98.6895 113.136 98.6895C113.435 98.6901 113.656 98.5482 113.76 98.291Z" fill="#263238"/>
<path d="M114.472 98.6563L114.591 98.4476C114.748 98.5707 115.013 98.6679 115.289 98.6679C115.662 98.6679 115.815 98.5409 115.815 98.3466C115.815 97.8355 114.543 98.2384 114.543 97.4623C114.543 97.1416 114.819 96.9026 115.319 96.9026C115.573 96.9026 115.849 96.9738 116.013 97.0853L115.897 97.2978C115.726 97.1786 115.52 97.13 115.319 97.13C114.964 97.13 114.808 97.2686 114.808 97.4546C114.808 97.9845 116.08 97.5849 116.08 98.3389C116.08 98.6784 115.781 98.8986 115.27 98.8986C114.946 98.8992 114.632 98.7948 114.472 98.6563Z" fill="#263238"/>
<path d="M116.296 98.6563L116.415 98.4476C116.572 98.5707 116.837 98.6679 117.113 98.6679C117.486 98.6679 117.639 98.5409 117.639 98.3466C117.639 97.8355 116.367 98.2384 116.367 97.4623C116.367 97.1416 116.643 96.9026 117.143 96.9026C117.397 96.9026 117.673 96.9738 117.837 97.0853L117.721 97.2978C117.549 97.1786 117.344 97.13 117.142 97.13C116.788 97.13 116.631 97.2686 116.631 97.4546C116.631 97.9845 117.903 97.5849 117.903 98.3389C117.903 98.6784 117.605 98.8986 117.094 98.8986C116.77 98.8992 116.457 98.7948 116.296 98.6563Z" fill="#263238"/>
<path d="M121.236 96.9175L120.493 98.8804H120.243L119.624 97.2719L119.005 98.8804H118.755L118.016 96.9175H118.269L118.885 98.5851L119.516 96.9175H119.743L120.37 98.5851L120.993 96.9175H121.236Z" fill="#263238"/>
<path d="M121.38 97.8989C121.38 97.3166 121.805 96.9026 122.38 96.9026C122.955 96.9026 123.376 97.3166 123.376 97.8989C123.376 98.4813 122.955 98.8992 122.38 98.8992C121.805 98.8992 121.38 98.4813 121.38 97.8989ZM123.108 97.8989C123.108 97.4402 122.798 97.1339 122.38 97.1339C121.962 97.1339 121.649 97.4397 121.649 97.8989C121.649 98.3582 121.962 98.664 122.38 98.664C122.798 98.664 123.108 98.3582 123.108 97.8989Z" fill="#263238"/>
<path d="M124.905 96.9026V97.1598C124.883 97.1598 124.861 97.156 124.842 97.156C124.431 97.156 124.181 97.417 124.181 97.8802V98.8804H123.917V96.9175H124.17V97.3017C124.293 97.0406 124.543 96.9026 124.905 96.9026Z" fill="#263238"/>
<path d="M127.155 96.1116V98.8804H126.901V98.4923C126.74 98.7573 126.468 98.8992 126.144 98.8992C125.584 98.8992 125.166 98.4923 125.166 97.8989C125.166 97.3055 125.584 96.9026 126.144 96.9026C126.457 96.9026 126.725 97.0367 126.89 97.2906V96.1116H127.155ZM126.893 97.8989C126.893 97.4402 126.58 97.1339 126.166 97.1339C125.748 97.1339 125.434 97.4397 125.434 97.8989C125.434 98.3582 125.747 98.664 126.166 98.664C126.58 98.664 126.893 98.3582 126.893 97.8989Z" fill="#263238"/>
<path d="M131.08 118.671V121.283H130.811V118.91H130.195V118.671H131.08Z" fill="#263238"/>
<path d="M133.486 121.044V121.283H131.654V121.093L132.739 120.029C133.034 119.738 133.091 119.563 133.091 119.384C133.091 119.081 132.878 118.895 132.478 118.895C132.173 118.895 131.937 118.988 131.766 119.186L131.575 119.022C131.777 118.783 132.101 118.649 132.5 118.649C133.03 118.649 133.366 118.918 133.366 119.354C133.366 119.604 133.288 119.828 132.937 120.171L132.049 121.044H133.486V121.044Z" fill="#263238"/>
<path d="M135.549 120.533C135.549 120.97 135.231 121.306 134.601 121.306C134.224 121.306 133.862 121.175 133.661 120.97L133.791 120.757C133.959 120.933 134.261 121.059 134.601 121.059C135.034 121.059 135.273 120.858 135.273 120.533C135.273 120.22 135.052 120.015 134.568 120.015H134.381V119.817L135.105 118.91H133.769V118.671H135.448V118.862L134.71 119.791C135.268 119.821 135.549 120.115 135.549 120.533Z" fill="#263238"/>
<path d="M138.144 120.597H137.622V121.283H137.353V120.597H135.879V120.402L137.264 118.671H137.562L136.226 120.358H137.36V119.753H137.621V120.358H138.144V120.597H138.144Z" fill="#263238"/>
<path d="M141.14 120.515C141.14 120.959 140.83 121.306 140.191 121.306C139.814 121.306 139.457 121.175 139.255 120.97L139.386 120.757C139.554 120.933 139.853 121.059 140.188 121.059C140.632 121.059 140.867 120.843 140.867 120.526C140.867 120.19 140.657 119.981 139.993 119.981H139.437L139.572 118.671H141.001V118.91H139.807L139.717 119.743H140.053C140.841 119.742 141.14 120.052 141.14 120.515Z" fill="#263238"/>
<path d="M143.44 120.503C143.44 120.992 143.056 121.305 142.548 121.305C141.854 121.305 141.478 120.824 141.478 119.999C141.478 119.111 141.963 118.649 142.672 118.649C142.907 118.649 143.127 118.69 143.291 118.791L143.183 119.007C143.049 118.918 142.87 118.884 142.676 118.884C142.112 118.884 141.75 119.246 141.75 119.955C141.75 120.015 141.754 120.089 141.761 120.168C141.892 119.881 142.198 119.72 142.56 119.72C143.078 119.72 143.44 120.026 143.44 120.503ZM143.176 120.511C143.176 120.167 142.922 119.947 142.518 119.947C142.119 119.947 141.846 120.193 141.846 120.518C141.846 120.805 142.086 121.077 142.537 121.077C142.914 121.078 143.176 120.858 143.176 120.511Z" fill="#263238"/>
<path d="M145.563 118.671V118.862L144.469 121.283H144.178L145.253 118.91H143.909V119.399H143.645V118.672H145.563V118.671Z" fill="#263238"/>
<path d="M147.853 120.556C147.853 121.018 147.461 121.306 146.838 121.306C146.211 121.306 145.831 121.018 145.831 120.556C145.831 120.243 146.01 120.023 146.334 119.914C146.07 119.809 145.925 119.612 145.925 119.339C145.925 118.914 146.286 118.649 146.838 118.649C147.391 118.649 147.76 118.914 147.76 119.339C147.76 119.612 147.61 119.809 147.342 119.914C147.67 120.022 147.853 120.246 147.853 120.556ZM147.577 120.552C147.577 120.231 147.301 120.029 146.838 120.029C146.376 120.029 146.103 120.231 146.103 120.552C146.103 120.876 146.376 121.078 146.838 121.078C147.301 121.078 147.577 120.876 147.577 120.552ZM146.838 119.817C147.245 119.817 147.488 119.634 147.488 119.35C147.488 119.055 147.23 118.877 146.838 118.877C146.443 118.877 146.193 119.055 146.193 119.347C146.193 119.634 146.431 119.817 146.838 119.817Z" fill="#263238"/>
<path d="M151.086 119.955C151.086 120.843 150.602 121.306 149.892 121.306C149.657 121.306 149.437 121.265 149.273 121.164L149.381 120.948C149.515 121.037 149.695 121.071 149.889 121.071C150.453 121.071 150.814 120.709 150.814 120C150.814 119.94 150.81 119.865 150.803 119.787C150.672 120.074 150.366 120.235 150.004 120.235C149.485 120.235 149.124 119.929 149.124 119.452C149.124 118.963 149.508 118.649 150.015 118.649C150.709 118.649 151.086 119.13 151.086 119.955ZM150.717 119.436C150.717 119.149 150.478 118.877 150.027 118.877C149.65 118.877 149.389 119.097 149.389 119.443C149.389 119.787 149.643 120.007 150.045 120.007C150.445 120.007 150.717 119.761 150.717 119.436Z" fill="#263238"/>
<path d="M152.19 118.671V121.283H151.921V118.91H151.306V118.671H152.19Z" fill="#263238"/>
<path d="M152.813 119.977C152.813 119.145 153.25 118.649 153.854 118.649C154.458 118.649 154.899 119.145 154.899 119.977C154.899 120.809 154.458 121.305 153.854 121.305C153.25 121.305 152.813 120.809 152.813 119.977ZM154.622 119.977C154.622 119.28 154.309 118.895 153.853 118.895C153.399 118.895 153.085 119.28 153.085 119.977C153.085 120.675 153.398 121.059 153.853 121.059C154.309 121.059 154.622 120.675 154.622 119.977Z" fill="#263238"/>
<path d="M155.998 118.671V121.283H155.729V118.91H155.114V118.671H155.998Z" fill="#263238"/>
<path d="M158.322 118.671V121.283H158.053V118.91H157.438V118.671H158.322Z" fill="#263238"/>
<path d="M159.668 118.671V121.283H159.399V118.91H158.784V118.671H159.668Z" fill="#263238"/>
<path d="M162.074 121.044V121.283H160.242V121.093L161.328 120.029C161.623 119.738 161.679 119.563 161.679 119.384C161.679 119.081 161.466 118.895 161.067 118.895C160.761 118.895 160.527 118.988 160.355 119.186L160.164 119.022C160.365 118.783 160.69 118.649 161.09 118.649C161.619 118.649 161.955 118.918 161.955 119.354C161.955 119.604 161.877 119.828 161.526 120.171L160.639 121.044H162.074V121.044Z" fill="#263238"/>
<path d="M163.133 118.671V121.283H162.864V118.91H162.249V118.671H163.133Z" fill="#263238"/>
<path d="M119.113 118.072V117.675C119.113 117.291 118.802 116.98 118.418 116.98H111.372C110.988 116.98 110.677 117.291 110.677 117.675V118.072H119.113Z" fill="#263238"/>
<path d="M110.677 118.618V121.545C110.677 121.929 110.988 122.24 111.372 122.24H118.419C118.803 122.24 119.114 121.929 119.114 121.545V118.618H110.677Z" fill="#263238"/>
<path d="M110.782 134.027C110.782 133.195 111.219 132.698 111.823 132.698C112.427 132.698 112.868 133.194 112.868 134.027C112.868 134.859 112.427 135.355 111.823 135.355C111.219 135.355 110.782 134.859 110.782 134.027ZM112.591 134.027C112.591 133.329 112.278 132.944 111.822 132.944C111.367 132.944 111.054 133.329 111.054 134.027C111.054 134.725 111.367 135.109 111.822 135.109C112.278 135.109 112.591 134.724 112.591 134.027Z" fill="#263238"/>
<path d="M115.259 134.605C115.259 135.067 114.867 135.355 114.244 135.355C113.617 135.355 113.236 135.068 113.236 134.605C113.236 134.292 113.416 134.072 113.74 133.963C113.475 133.859 113.33 133.661 113.33 133.388C113.33 132.963 113.692 132.698 114.244 132.698C114.797 132.698 115.166 132.963 115.166 133.388C115.166 133.661 115.016 133.859 114.748 133.963C115.075 134.072 115.259 134.295 115.259 134.605ZM114.982 134.602C114.982 134.28 114.706 134.079 114.244 134.079C113.781 134.079 113.508 134.281 113.508 134.602C113.508 134.926 113.781 135.128 114.244 135.128C114.706 135.128 114.982 134.926 114.982 134.602ZM114.244 133.866C114.65 133.866 114.893 133.684 114.893 133.4C114.893 133.105 114.635 132.926 114.244 132.926C113.848 132.926 113.598 133.105 113.598 133.397C113.598 133.684 113.837 133.866 114.244 133.866Z" fill="#263238"/>
<path d="M116.575 132.191H116.817L115.586 135.706H115.344L116.575 132.191Z" fill="#263238"/>
<path d="M118.663 135.094V135.333H116.831V135.142L117.917 134.079C118.212 133.788 118.268 133.613 118.268 133.434C118.268 133.131 118.056 132.945 117.656 132.945C117.35 132.945 117.115 133.038 116.943 133.236L116.753 133.072C116.954 132.833 117.279 132.699 117.678 132.699C118.208 132.699 118.544 132.968 118.544 133.404C118.544 133.654 118.465 133.878 118.115 134.221L117.227 135.094L118.663 135.094Z" fill="#263238"/>
<path d="M120.771 134.564C120.771 135.008 120.461 135.355 119.823 135.355C119.446 135.355 119.088 135.225 118.887 135.019L119.017 134.807C119.185 134.982 119.484 135.109 119.82 135.109C120.264 135.109 120.499 134.893 120.499 134.576C120.499 134.24 120.29 134.031 119.626 134.031H119.07L119.204 132.721H120.634V132.96H119.44L119.35 133.792H119.686C120.472 133.792 120.771 134.101 120.771 134.564Z" fill="#263238"/>
<path d="M111.998 131.038V131.186H110.852V129.564H111.963V129.713H111.023V130.29H111.861V130.436H111.023V131.038H111.998Z" fill="#263238"/>
<path d="M113.4 131.187L112.876 130.474L112.355 131.187H112.158L112.774 130.353L112.197 129.565H112.394L112.883 130.227L113.369 129.565H113.554L112.98 130.348L113.598 131.187H113.4Z" fill="#263238"/>
<path d="M115.118 130.121C115.118 130.466 114.868 130.675 114.456 130.675H114.02V131.187H113.848V129.565H114.455C114.868 129.565 115.118 129.774 115.118 130.121ZM114.946 130.121C114.946 129.862 114.775 129.713 114.451 129.713H114.02V130.524H114.451C114.775 130.524 114.946 130.376 114.946 130.121Z" fill="#263238"/>
<path d="M116.122 129.565H116.782C117.301 129.565 117.651 129.899 117.651 130.376C117.651 130.853 117.301 131.187 116.782 131.187H116.122V129.565ZM116.772 131.038C117.203 131.038 117.481 130.765 117.481 130.376C117.481 129.987 117.203 129.713 116.772 129.713H116.293V131.038H116.772Z" fill="#263238"/>
<path d="M118.922 130.432V131.187H118.765V130.997C118.691 131.122 118.546 131.198 118.346 131.198C118.07 131.198 117.901 131.055 117.901 130.844C117.901 130.656 118.021 130.499 118.371 130.499H118.758V130.425C118.758 130.216 118.64 130.103 118.413 130.103C118.255 130.103 118.107 130.159 118.008 130.247L117.934 130.124C118.056 130.02 118.237 129.959 118.429 129.959C118.744 129.959 118.922 130.117 118.922 130.432ZM118.758 130.821V130.622H118.376C118.14 130.622 118.063 130.714 118.063 130.84C118.063 130.981 118.177 131.069 118.371 131.069C118.556 131.069 118.693 130.98 118.758 130.821Z" fill="#263238"/>
<path d="M120.013 131.113C119.949 131.171 119.851 131.198 119.756 131.198C119.527 131.198 119.399 131.069 119.399 130.844V130.108H119.181V129.969H119.399V129.702H119.564V129.969H119.934V130.108H119.564V130.835C119.564 130.979 119.638 131.058 119.775 131.058C119.842 131.058 119.909 131.037 119.955 130.995L120.013 131.113Z" fill="#263238"/>
<path d="M121.33 130.628H120.311C120.329 130.883 120.524 131.052 120.79 131.052C120.938 131.052 121.071 130.998 121.163 130.892L121.256 130.998C121.147 131.128 120.978 131.198 120.786 131.198C120.406 131.198 120.147 130.938 120.147 130.577C120.147 130.216 120.399 129.958 120.742 129.958C121.085 129.958 121.333 130.211 121.333 130.577C121.332 130.591 121.33 130.61 121.33 130.628ZM120.311 130.506H121.174C121.154 130.267 120.98 130.1 120.741 130.1C120.505 130.1 120.332 130.267 120.311 130.506Z" fill="#263238"/>
<path d="M141.612 132.721V135.333H141.344V132.96H140.728V132.721H141.612Z" fill="#263238"/>
<path d="M144.018 135.094V135.333H142.186V135.142L143.272 134.079C143.566 133.788 143.623 133.613 143.623 133.434C143.623 133.131 143.41 132.945 143.011 132.945C142.705 132.945 142.47 133.038 142.298 133.236L142.108 133.072C142.31 132.833 142.634 132.699 143.033 132.699C143.563 132.699 143.899 132.968 143.899 133.404C143.899 133.654 143.82 133.878 143.47 134.221L142.582 135.094L144.018 135.094Z" fill="#263238"/>
<path d="M146.081 134.583C146.081 135.019 145.764 135.355 145.133 135.355C144.755 135.355 144.394 135.225 144.193 135.019L144.323 134.807C144.491 134.982 144.793 135.109 145.133 135.109C145.565 135.109 145.805 134.907 145.805 134.583C145.805 134.27 145.585 134.064 145.1 134.064H144.913V133.867L145.637 132.96H144.301V132.721H145.98V132.911L145.241 133.841C145.8 133.87 146.081 134.165 146.081 134.583Z" fill="#263238"/>
<path d="M140.814 130.376C140.814 129.901 141.176 129.551 141.665 129.551C141.901 129.551 142.113 129.63 142.258 129.788L142.149 129.896C142.016 129.762 141.855 129.704 141.669 129.704C141.278 129.704 140.984 129.991 140.984 130.376C140.984 130.761 141.278 131.048 141.669 131.048C141.855 131.048 142.016 130.99 142.149 130.853L142.258 130.962C142.113 131.12 141.901 131.201 141.662 131.201C141.176 131.201 140.814 130.851 140.814 130.376Z" fill="#263238"/>
<path d="M144.833 129.565L144.287 131.187H144.106L143.632 129.804L143.154 131.187H142.976L142.43 129.565H142.605L143.073 130.96L143.558 129.565H143.717L144.195 130.967L144.669 129.565H144.833Z" fill="#263238"/>
<path d="M127.129 149.362H125.674L125.36 150.06H125.073L126.267 147.448H126.539L127.733 150.06H127.442L127.129 149.362ZM127.028 149.138L126.401 147.736L125.774 149.138H127.028Z" fill="#263238"/>
<path d="M127.892 149.079C127.892 148.492 128.318 148.082 128.903 148.082C129.235 148.082 129.515 148.213 129.672 148.47L129.474 148.604C129.34 148.407 129.131 148.314 128.903 148.314C128.474 148.314 128.161 148.619 128.161 149.079C128.161 149.541 128.474 149.844 128.903 149.844C129.131 149.844 129.34 149.754 129.474 149.556L129.672 149.69C129.515 149.944 129.235 150.078 128.903 150.078C128.318 150.079 127.892 149.664 127.892 149.079Z" fill="#263238"/>
<path d="M131.246 149.94C131.142 150.034 130.985 150.079 130.832 150.079C130.463 150.079 130.258 149.87 130.258 149.508V148.321H129.907V148.098H130.258V147.669H130.523V148.098H131.12V148.321H130.523V149.493C130.523 149.724 130.642 149.851 130.862 149.851C130.97 149.851 131.078 149.817 131.153 149.75L131.246 149.94Z" fill="#263238"/>
<path d="M131.667 147.478C131.667 147.377 131.752 147.291 131.861 147.291C131.969 147.291 132.055 147.373 132.055 147.474C132.055 147.582 131.973 147.668 131.861 147.668C131.753 147.668 131.667 147.582 131.667 147.478ZM131.727 148.097H131.991V150.06H131.727V148.097Z" fill="#263238"/>
<path d="M132.532 149.079C132.532 148.496 132.957 148.082 133.533 148.082C134.107 148.082 134.529 148.496 134.529 149.079C134.529 149.661 134.107 150.078 133.533 150.078C132.957 150.079 132.532 149.661 132.532 149.079ZM134.26 149.079C134.26 148.619 133.95 148.314 133.532 148.314C133.114 148.314 132.801 148.619 132.801 149.079C132.801 149.537 133.114 149.844 133.532 149.844C133.95 149.844 134.26 149.537 134.26 149.079Z" fill="#263238"/>
<path d="M136.874 148.922V150.06H136.609V148.948C136.609 148.534 136.393 148.321 136.02 148.321C135.598 148.321 135.333 148.582 135.333 149.03V150.059H135.069V148.097H135.323V148.459C135.465 148.22 135.73 148.081 136.069 148.081C136.547 148.082 136.874 148.359 136.874 148.922Z" fill="#263238"/>
<path d="M138.904 147.687V148.713H140.254V148.952H138.904V150.06H138.627V147.448H140.418V147.687L138.904 147.687Z" fill="#263238"/>
<path d="M140.835 147.478C140.835 147.377 140.921 147.291 141.029 147.291C141.138 147.291 141.224 147.373 141.224 147.474C141.224 147.582 141.141 147.668 141.029 147.668C140.921 147.668 140.835 147.582 140.835 147.478ZM140.895 148.097H141.159V150.06H140.895V148.097Z" fill="#263238"/>
<path d="M143.715 148.097V149.821C143.715 150.497 143.383 150.802 142.734 150.802C142.376 150.802 142.025 150.694 141.82 150.5L141.953 150.299C142.14 150.466 142.424 150.567 142.726 150.567C143.222 150.567 143.449 150.339 143.449 149.854V149.605C143.285 149.854 143.005 149.985 142.685 149.985C142.125 149.985 141.699 149.593 141.699 149.03C141.699 148.467 142.125 148.082 142.685 148.082C143.013 148.082 143.296 148.216 143.46 148.474V148.097H143.715V148.097ZM143.458 149.03C143.458 148.605 143.144 148.314 142.711 148.314C142.279 148.314 141.968 148.604 141.968 149.03C141.968 149.456 142.279 149.75 142.711 149.75C143.143 149.75 143.458 149.456 143.458 149.03Z" fill="#263238"/>
<path d="M146.225 148.097V150.06H145.971V149.702C145.833 149.941 145.579 150.079 145.266 150.079C144.766 150.079 144.437 149.799 144.437 149.236V148.098H144.702V149.211C144.702 149.628 144.919 149.841 145.292 149.841C145.702 149.841 145.96 149.577 145.96 149.129V148.099H146.225V148.097Z" fill="#263238"/>
<path d="M147.955 148.082V148.34C147.933 148.34 147.911 148.336 147.892 148.336C147.482 148.336 147.232 148.598 147.232 149.06V150.06H146.967V148.097H147.22V148.481C147.344 148.221 147.593 148.082 147.955 148.082Z" fill="#263238"/>
<path d="M150.123 149.161H148.481C148.511 149.571 148.824 149.844 149.253 149.844C149.492 149.844 149.705 149.758 149.854 149.586L150.003 149.758C149.828 149.967 149.556 150.079 149.246 150.079C148.634 150.079 148.216 149.66 148.216 149.079C148.216 148.497 148.623 148.082 149.175 148.082C149.727 148.082 150.127 148.489 150.127 149.079C150.127 149.101 150.123 149.131 150.123 149.161ZM148.481 148.963H149.873C149.839 148.579 149.56 148.31 149.175 148.31C148.795 148.31 148.515 148.579 148.481 148.963Z" fill="#263238"/>
<path d="M128.302 160.535V161.683H127.277V160.566C126.263 160.505 125.289 160.187 124.725 159.746L125.289 158.495C125.801 158.875 126.539 159.152 127.277 159.223V157.511C126.139 157.234 124.868 156.855 124.868 155.389C124.868 154.302 125.658 153.369 127.277 153.185V152.047H128.302V153.164C129.071 153.225 129.819 153.43 130.384 153.79L129.871 155.05C129.349 154.753 128.815 154.579 128.303 154.517V156.26C129.441 156.526 130.692 156.906 130.692 158.351C130.691 159.418 129.912 160.341 128.302 160.535ZM127.277 156.004V154.549C126.734 154.672 126.519 154.969 126.519 155.307C126.519 155.666 126.826 155.861 127.277 156.004ZM129.041 158.475C129.041 158.116 128.744 157.921 128.302 157.768V159.183C128.815 159.069 129.041 158.802 129.041 158.475Z" fill="#263238"/>
<path d="M136.738 159.1V160.453H131.315V159.377L134.083 156.763C134.718 156.158 134.832 155.789 134.832 155.441C134.832 154.877 134.442 154.549 133.683 154.549C133.068 154.549 132.546 154.785 132.197 155.267L130.988 154.488C131.542 153.678 132.546 153.155 133.838 153.155C135.437 153.155 136.503 153.975 136.503 155.277C136.503 155.974 136.308 156.61 135.304 157.543L133.653 159.1H136.738Z" fill="#263238"/>
<path d="M137.404 156.866C137.404 154.498 138.715 153.155 140.48 153.155C142.253 153.155 143.554 154.498 143.554 156.866C143.554 159.233 142.253 160.576 140.48 160.576C138.716 160.576 137.404 159.233 137.404 156.866ZM141.883 156.866C141.883 155.236 141.31 154.559 140.48 154.559C139.659 154.559 139.085 155.236 139.085 156.866C139.085 158.495 139.659 159.172 140.48 159.172C141.31 159.172 141.883 158.495 141.883 156.866Z" fill="#263238"/>
<path d="M144.364 156.866C144.364 154.498 145.676 153.155 147.439 153.155C149.212 153.155 150.514 154.498 150.514 156.866C150.514 159.233 149.212 160.576 147.439 160.576C145.676 160.576 144.364 159.233 144.364 156.866ZM148.844 156.866C148.844 155.236 148.269 154.559 147.439 154.559C146.619 154.559 146.045 155.236 146.045 156.866C146.045 158.495 146.619 159.172 147.439 159.172C148.269 159.172 148.844 158.495 148.844 156.866Z" fill="#263238"/>
<path d="M149.123 178.725H126.239C123.281 178.725 120.884 176.327 120.884 173.369C120.884 170.412 123.281 168.014 126.239 168.014H149.123C152.08 168.014 154.478 170.412 154.478 173.369C154.478 176.328 152.08 178.725 149.123 178.725Z" fill="#263238"/>
<path d="M130.336 172.8C130.336 173.47 129.85 173.874 129.05 173.874H128.204V174.869H127.871V171.72H129.05C129.85 171.72 130.336 172.125 130.336 172.8ZM130.003 172.8C130.003 172.296 129.67 172.008 129.04 172.008H128.204V173.582H129.04C129.67 173.582 130.003 173.295 130.003 172.8Z" fill="white"/>
<path d="M132.752 173.403V174.869H132.446V174.5C132.302 174.743 132.023 174.891 131.632 174.891C131.096 174.891 130.768 174.612 130.768 174.203C130.768 173.839 131.002 173.533 131.681 173.533H132.433V173.389C132.433 172.984 132.203 172.763 131.762 172.763C131.457 172.763 131.168 172.871 130.975 173.042L130.831 172.804C131.07 172.602 131.421 172.485 131.794 172.485C132.405 172.485 132.752 172.79 132.752 173.403ZM132.432 174.158V173.771H131.69C131.231 173.771 131.083 173.951 131.083 174.194C131.083 174.469 131.303 174.64 131.681 174.64C132.041 174.639 132.306 174.468 132.432 174.158Z" fill="white"/>
<path d="M135.562 172.503L134.379 175.152C134.182 175.615 133.93 175.763 133.592 175.763C133.372 175.763 133.161 175.692 133.017 175.548L133.165 175.309C133.282 175.426 133.426 175.489 133.597 175.489C133.808 175.489 133.952 175.39 134.087 175.093L134.191 174.864L133.134 172.502H133.467L134.357 174.513L135.248 172.502H135.562V172.503Z" fill="white"/>
<path d="M138.257 174.891V175.408H138.032V174.896C137.591 174.873 137.178 174.711 136.957 174.487L137.087 174.23C137.294 174.433 137.654 174.585 138.031 174.608V173.425C137.537 173.303 137.033 173.151 137.033 172.557C137.033 172.125 137.343 171.752 138.031 171.698V171.18H138.256V171.693C138.593 171.706 138.931 171.806 139.169 171.972L139.057 172.237C138.805 172.076 138.517 171.99 138.256 171.976V173.168C138.765 173.289 139.299 173.433 139.299 174.036C139.3 174.473 138.972 174.851 138.257 174.891ZM138.032 173.11V171.986C137.569 172.026 137.362 172.264 137.362 172.548C137.362 172.89 137.663 173.016 138.032 173.11ZM138.972 174.054C138.972 173.7 138.644 173.578 138.257 173.483V174.608C138.751 174.572 138.972 174.343 138.972 174.054Z" fill="white"/>
<path d="M141.895 174.581V174.869H139.687V174.639L140.996 173.357C141.352 173.007 141.419 172.795 141.419 172.58C141.419 172.215 141.162 171.991 140.682 171.991C140.313 171.991 140.029 172.103 139.822 172.342L139.593 172.144C139.835 171.856 140.227 171.694 140.708 171.694C141.347 171.694 141.752 172.018 141.752 172.544C141.752 172.846 141.657 173.115 141.234 173.529L140.164 174.582H141.895V174.581Z" fill="white"/>
<path d="M142.282 173.295C142.282 172.292 142.808 171.694 143.537 171.694C144.266 171.694 144.796 172.292 144.796 173.295C144.796 174.297 144.266 174.896 143.537 174.896C142.808 174.896 142.282 174.297 142.282 173.295ZM144.463 173.295C144.463 172.453 144.086 171.991 143.537 171.991C142.988 171.991 142.61 172.454 142.61 173.295C142.61 174.136 142.988 174.599 143.537 174.599C144.086 174.599 144.463 174.136 144.463 173.295Z" fill="white"/>
<path d="M145.26 173.295C145.26 172.292 145.786 171.694 146.515 171.694C147.243 171.694 147.774 172.292 147.774 173.295C147.774 174.297 147.243 174.896 146.515 174.896C145.786 174.896 145.26 174.297 145.26 173.295ZM147.441 173.295C147.441 172.453 147.063 171.991 146.515 171.991C145.966 171.991 145.587 172.454 145.587 173.295C145.587 174.136 145.965 174.599 146.515 174.599C147.063 174.599 147.441 174.136 147.441 173.295Z" fill="white"/>
<path d="M103.052 161.87C103.88 174.594 97.9845 188.764 97.9845 188.764L66.1424 179.797L60.5876 178.232C66.0972 170.56 68.7363 155.462 67.2961 143.239C67.1857 142.316 67.1156 141.448 67.0703 140.625C66.5437 130.544 70.703 127.594 74.2458 123.139C78.0844 118.317 86.7094 100.098 86.7094 95.7875C86.7094 91.4725 97.4971 80.9255 95.0987 68.9432C95.0987 68.9432 98.3599 66.9212 101.642 68.5816C103.127 69.3346 104.617 70.8393 105.811 73.6297C108.621 80.1979 104.678 98.7479 101.321 103.299L94.858 130.058C94.858 130.058 97.0357 133.816 99.178 140.641C100.844 145.964 102.486 153.144 103.052 161.87Z" fill="white"/>
<path opacity="0.4" d="M67.0708 140.625C68.8719 145.562 70.789 148.879 70.6234 155.823C70.4578 162.768 66.755 173.4 67.8138 178.934C67.8138 178.934 66.9758 179.14 66.1428 179.797L60.5881 178.232C66.0976 170.56 68.7367 155.462 67.2965 143.239C67.1861 142.316 67.116 141.448 67.0708 140.625Z" fill="#92E3A9"/>
<path opacity="0.4" d="M101.321 103.298L94.8584 130.058C94.8584 130.058 97.0361 133.816 99.1784 140.64C99.1734 140.635 99.1734 140.63 99.1684 140.625C94.7983 133.57 91.0999 131.478 91.0999 131.478C94.015 127.981 96.2633 102.426 96.2633 102.426C96.2633 102.426 105.401 91.6883 104.522 80.4534C104.116 75.285 102.871 71.3366 101.642 68.5815C103.127 69.3345 104.617 70.8392 105.812 73.6296C108.622 80.1973 104.678 98.7472 101.321 103.298Z" fill="#92E3A9"/>
<path d="M60.5864 178.231C66.0987 170.561 68.735 155.463 67.2971 143.24C65.8591 131.017 70.4126 127.957 74.2473 123.136C78.0821 118.314 86.7098 100.1 86.7098 95.7852C86.7098 91.4708 97.4948 80.9259 95.098 68.9426C95.098 68.9426 101.984 64.6767 105.812 73.6307C108.62 80.1984 104.677 98.7451 101.322 103.299L94.8584 130.057C94.8584 130.057 101.756 141.951 103.051 161.869C103.878 174.593 97.9822 188.764 97.9822 188.764" stroke="#263238" stroke-miterlimit="10" stroke-linecap="round" stroke-linejoin="round"/>
<path d="M81.8749 198.946C81.8749 198.946 89.1221 203.409 93.3493 210.463" stroke="#263238" stroke-miterlimit="10" stroke-linecap="round" stroke-linejoin="round"/>
<path d="M102.233 207.385C102.233 207.385 95.9895 208.273 90.347 201.526C86.7303 197.201 75.751 195.247 73.2234 183.941" stroke="#263238" stroke-miterlimit="10" stroke-linecap="round" stroke-linejoin="round"/>
<path opacity="0.2" d="M192.966 240.813C176.986 233.169 186.665 227.043 164.679 217.553C142.693 208.063 142.469 199.958 145.122 181.307C147.775 162.657 145.667 142.832 152.067 141.148C158.468 139.465 147.062 113.747 154.516 104.654L191.193 175.994L192.966 240.813Z" fill="black" fill-opacity="0.7"/>
<path d="M252.513 240.07C251.761 237.922 250.998 235.579 250.41 233.457C249.648 230.682 249.051 228.484 247.645 225.925C247.425 225.514 247.184 225.082 246.918 224.621C245.423 221.956 243.376 218.304 242.176 213.822C241.374 210.802 242.161 203.366 242.929 196.171C243.471 190.992 243.982 186.105 243.837 183.336L243.791 182.352C243.415 175.106 242.632 160.023 241.007 155.849C239.436 151.83 237.966 151.227 235.287 150.154C235.011 150.033 234.725 149.923 234.418 149.793C233.415 149.371 231.704 148.488 229.732 147.469C225.286 145.166 219.757 142.301 216.947 141.92C213.239 141.428 209.661 142.156 209.069 142.287C205.607 139.627 199.716 136.205 197.965 136.14C196.525 136.07 193.394 136.968 191.879 137.439C191.528 137.55 191.257 137.635 191.122 137.68C189.857 136.742 188.798 136.039 188.111 135.703C188.036 135.668 187.965 135.638 187.905 135.613C185.958 134.81 183.013 134.78 181.408 134.825C180.921 134.845 180.545 134.875 180.369 134.89C177.343 130.229 174.357 125.587 173.063 123.551C170.359 119.265 161.984 101.638 161.899 101.453C161.879 101.408 161.844 101.378 161.788 101.362C161.788 101.362 161.763 101.347 161.713 101.337C161.061 101.147 156.264 99.9272 154.338 104.578C152.23 109.636 155.241 120.75 158.176 124.784C159.591 126.731 163.444 134.654 167.364 142.858C166.355 143.791 158.322 151.217 154.418 152.602C151.222 153.731 151.969 170.114 152.572 183.27C152.797 188.127 152.988 192.307 152.933 194.816C152.822 199.673 161.658 206.367 170.224 212.834C177.966 218.695 185.969 224.752 186.907 229.152C187.168 230.391 187.906 231.394 188.789 232.524C190.264 234.4 192.161 236.613 192.969 240.812C193.204 242.067 195.226 243.713 196.812 246.402H254.851C254.364 245.147 253.451 242.764 252.513 240.07ZM172.105 152.798C174.915 158.684 176.651 162.206 177.063 162.577C177.474 162.953 177.459 164.835 177.444 166.646C177.424 168.247 177.409 169.963 177.61 171.413C176.928 172.015 172.607 175.949 171.734 179.13L168.061 174.804L167.133 161.247C167.689 160.67 171.468 156.682 172.105 152.798Z" fill="white"/>
<path opacity="0.4" d="M235.875 190.61C237.237 203.333 237.257 210.232 238.786 213.915C241.366 220.132 245.17 221.391 245.17 221.391C244.068 219.236 242.947 216.702 242.176 213.821C241.373 210.803 242.161 203.366 242.926 196.17C243.468 190.993 243.985 186.103 243.839 183.332L243.79 182.35C243.414 175.104 242.634 160.023 241.006 155.849C239.439 151.828 237.966 151.227 235.289 150.151C235.011 150.032 234.723 149.922 234.418 149.791C233.414 149.373 231.706 148.488 229.732 147.468C225.286 145.167 219.755 142.3 216.949 141.921C213.239 141.43 209.661 142.152 209.071 142.284C205.607 139.627 199.718 136.205 197.964 136.137C196.526 136.069 192.639 137.202 191.123 137.677C197.733 143.084 207.288 149.806 207.288 149.806C214.833 151.306 213.867 154.583 216.917 156.414C219.679 158.073 222.321 153.223 224.626 152.796C227.67 152.232 231.133 155.462 230.978 159.356C230.551 170.15 234.705 179.689 235.875 190.61Z" fill="#92E3A9"/>
<path opacity="0.4" d="M197.733 151.181C197.733 151.181 191.752 146.223 188.888 144.543C186.025 142.863 185.58 137.176 187.832 135.791C187.911 135.742 187.997 135.713 188.11 135.704C188.039 135.67 187.967 135.635 187.904 135.611C185.957 134.807 183.015 134.779 181.408 134.826C184.743 140.994 187.363 145.725 188.079 146.76C190.487 150.242 197.733 151.181 197.733 151.181Z" fill="#92E3A9"/>
<path opacity="0.4" d="M188.663 228.439C188.914 227.119 186.741 223.255 185.788 221.69C183.616 218.112 158.427 195.854 162.08 189.913C165.718 183.957 169.059 188.373 171.368 188.754C173.029 189.03 177.575 186.32 177.55 186.094C177.033 181.518 181.258 178.543 181.258 178.543C181.258 178.543 180.866 160.329 179.898 160.64C178.924 160.951 167.299 133.284 167.299 133.284C167.299 133.284 155.015 116.946 155.708 109.325C156.4 101.713 161.724 101.542 161.724 101.542L161.714 101.336C161.062 101.146 156.265 99.9265 154.338 104.578C152.231 109.636 155.241 120.75 158.177 124.784C159.592 126.73 163.445 134.653 167.364 142.857C166.356 143.791 158.323 151.217 154.419 152.602C151.223 153.73 151.97 170.113 152.572 183.27C152.798 188.127 152.989 192.306 152.933 194.815C152.823 199.672 161.659 206.366 170.224 212.834C177.967 218.694 185.969 224.751 186.908 229.151C187.169 230.39 187.906 231.394 188.79 232.523C188.643 230.922 188.533 229.136 188.663 228.439ZM172.105 152.798C174.915 158.684 176.651 162.206 177.063 162.577C177.474 162.953 177.459 164.834 177.444 166.646C177.424 168.247 177.409 169.963 177.61 171.413C176.928 172.015 172.607 175.948 171.734 179.13L168.061 174.804L167.133 161.246C167.689 160.67 171.468 156.681 172.105 152.798Z" fill="#92E3A9"/>
<path d="M194.283 151.11C194.283 151.11 190.597 150.141 188.076 146.762C185.556 143.384 175.648 127.997 172.901 123.654C170.155 119.311 161.724 101.544 161.724 101.544C161.724 101.544 156.536 99.8072 154.516 104.655C152.496 109.503 155.263 120.449 158.335 124.668C161.407 128.887 176.031 161.383 177.193 162.434C178.355 163.485 176.612 172.146 178.936 174.242" stroke="#263238" stroke-miterlimit="10" stroke-linecap="round" stroke-linejoin="round"/>
<path d="M177.823 171.492C177.823 171.492 172.468 176.157 171.84 179.56L167.866 174.884L166.927 161.173C166.927 161.173 171.721 156.372 171.984 152.096" stroke="#263238" stroke-miterlimit="10" stroke-linecap="round" stroke-linejoin="round"/>
<path d="M167.605 142.903C167.605 142.903 158.713 151.292 154.485 152.79C150.257 154.288 153.338 185.72 153.128 194.825C152.918 203.93 185.12 219.782 187.095 229.104C187.881 232.809 191.124 233.566 193.109 240.67" stroke="#263238" stroke-miterlimit="10" stroke-linecap="round" stroke-linejoin="round"/>
<path d="M180.263 135.092C180.263 135.092 185.102 134.657 187.829 135.789C190.557 136.922 201.635 146.438 204.299 148.256C206.963 150.075 210.99 150.761 211.753 152.719" stroke="#263238" stroke-miterlimit="10" stroke-linecap="round" stroke-linejoin="round"/>
<path d="M191.088 137.894C191.088 137.894 196.072 136.249 197.952 136.331C199.832 136.414 206.994 140.639 210.196 143.452C213.397 146.264 216.61 147.819 218.538 148.52" stroke="#263238" stroke-miterlimit="10" stroke-linecap="round" stroke-linejoin="round"/>
<path d="M209.029 142.497C209.029 142.497 212.886 141.573 216.926 142.117C220.966 142.662 231.114 148.631 234.346 149.977C237.578 151.324 239.128 151.572 240.824 155.923C242.521 160.274 243.304 176.812 243.646 183.346C243.987 189.88 240.584 208.601 241.986 213.869C243.388 219.137 245.933 223.196 247.474 226.016" stroke="#263238" stroke-miterlimit="10" stroke-linecap="round" stroke-linejoin="round"/>
<path d="M166.927 161.173C166.927 161.173 166.123 157.953 165.06 157.54" stroke="#263238" stroke-miterlimit="10" stroke-linecap="round" stroke-linejoin="round"/>
<path d="M167.865 174.884C167.865 174.884 168.583 178.473 169.372 180.434C170.162 182.395 168.931 185.228 168.931 185.228" stroke="#263238" stroke-miterlimit="10" stroke-linecap="round" stroke-linejoin="round"/>
<path d="M171.839 179.56C171.708 182.694 174.829 186.358 175.586 185.841" stroke="#263238" stroke-miterlimit="10" stroke-linecap="round" stroke-linejoin="round"/>
<path d="M187.721 161.173C187.721 161.173 191.068 155.754 194.283 155.489C197.498 155.225 201.203 159.784 203.188 159.356C205.173 158.93 207.663 156.012 210.996 155.478C214.329 154.944 215.891 156.548 218.538 156.68C221.186 156.813 221.45 153.28 224.627 152.797C227.803 152.313 228.861 153.925 230.978 154.31C233.096 154.695 233.629 153.05 235.345 152.096" stroke="#263238" stroke-miterlimit="10" stroke-linecap="round" stroke-linejoin="round"/>
</svg>
