<svg width="317" height="246" viewBox="0 0 317 246" fill="none" xmlns="http://www.w3.org/2000/svg">
<path d="M76.4372 244.648H284.7C286.871 242.187 289.435 238.107 290.07 237.257C296.491 228.653 301.681 219.257 305.743 209.524C322.447 169.499 319.533 122.964 301.965 83.6134C288.965 54.4952 266.232 29.3653 234.263 16.8341C204.762 5.27019 164.091 2.2712 139.033 23.7251C113.897 45.2451 118.098 83.0383 92.9348 104.474C92.233 105.072 91.5106 105.651 90.769 106.207C77.0668 116.49 58.2121 116.265 41.9313 120.49C25.023 124.878 9.50929 135.854 3.64134 151.469C-4.10898 172.092 2.90105 195.74 14.8839 213.767C29.5019 235.758 51.8034 242.036 76.4372 244.648Z" fill="#92E3A9"/>
<path opacity="0.7" d="M76.4372 244.648H284.7C286.871 242.187 289.435 238.107 290.07 237.257C296.491 228.653 301.681 219.257 305.743 209.524C322.447 169.499 319.533 122.964 301.965 83.6134C288.965 54.4952 266.232 29.3653 234.263 16.8341C204.762 5.27019 164.091 2.2712 139.033 23.7251C113.897 45.2451 118.098 83.0383 92.9348 104.474C92.233 105.072 91.5106 105.651 90.769 106.207C77.0668 116.49 58.2121 116.265 41.9313 120.49C25.023 124.878 9.50929 135.854 3.64134 151.469C-4.10898 172.092 2.90105 195.74 14.8839 213.767C29.5019 235.758 51.8034 242.036 76.4372 244.648Z" fill="white"/>
<path d="M218.572 9.35181H138.836L137.783 20.3137H218.572V9.35181Z" stroke="#A3A3A3" stroke-miterlimit="10"/>
<path d="M218.572 20.3137H138.836L137.783 31.2763H218.572V20.3137Z" stroke="#A3A3A3" stroke-miterlimit="10"/>
<path d="M218.572 31.2764H138.836L137.783 42.2383H218.572V31.2764Z" stroke="#A3A3A3" stroke-miterlimit="10"/>
<path d="M218.572 42.2383H138.836L137.783 53.2002H218.572V42.2383Z" stroke="#A3A3A3" stroke-miterlimit="10"/>
<path d="M218.572 53.2002H138.836L137.783 64.1628H218.572V53.2002Z" stroke="#A3A3A3" stroke-miterlimit="10"/>
<path d="M218.572 64.1626H138.836L137.783 75.1245H218.572V64.1626Z" stroke="#A3A3A3" stroke-miterlimit="10"/>
<path d="M218.572 75.1245H138.836L137.783 86.0864H218.572V75.1245Z" stroke="#A3A3A3" stroke-miterlimit="10"/>
<path d="M218.572 86.0864H138.836L137.783 97.049H218.572V86.0864Z" stroke="#A3A3A3" stroke-miterlimit="10"/>
<path d="M218.572 97.0491H138.836L137.783 108.011H218.572V97.0491Z" stroke="#A3A3A3" stroke-miterlimit="10"/>
<path d="M218.572 108.011H138.836L137.783 118.973H218.572V108.011Z" stroke="#A3A3A3" stroke-miterlimit="10"/>
<path d="M218.572 118.973H138.836L137.783 129.935H218.572V118.973Z" stroke="#A3A3A3" stroke-miterlimit="10"/>
<path d="M218.572 129.936H138.836L137.783 140.897H218.572V129.936Z" stroke="#A3A3A3" stroke-miterlimit="10"/>
<path d="M218.572 140.897H138.836L137.783 151.859H218.572V140.897Z" stroke="#A3A3A3" stroke-miterlimit="10"/>
<path d="M218.572 151.859H138.836L137.783 162.822H218.572V151.859Z" stroke="#A3A3A3" stroke-miterlimit="10"/>
<path d="M218.572 162.822H138.836L137.783 173.784H218.572V162.822Z" stroke="#A3A3A3" stroke-miterlimit="10"/>
<path d="M300.537 9.35181H220.802L219.749 20.3137H300.537V9.35181Z" stroke="#A3A3A3" stroke-miterlimit="10"/>
<path d="M300.537 20.3137H220.802L219.749 31.2763H300.537V20.3137Z" stroke="#A3A3A3" stroke-miterlimit="10"/>
<path d="M300.537 31.2764H220.802L219.749 42.2383H300.537V31.2764Z" stroke="#A3A3A3" stroke-miterlimit="10"/>
<path d="M300.537 42.2383H220.802L219.749 53.2002H300.537V42.2383Z" stroke="#A3A3A3" stroke-miterlimit="10"/>
<path d="M300.537 53.2002H220.802L219.749 64.1628H300.537V53.2002Z" stroke="#A3A3A3" stroke-miterlimit="10"/>
<path d="M300.537 64.1626H220.802L219.749 75.1245H300.537V64.1626Z" stroke="#A3A3A3" stroke-miterlimit="10"/>
<path d="M300.537 75.1245H220.802L219.749 86.0864H300.537V75.1245Z" stroke="#A3A3A3" stroke-miterlimit="10"/>
<path d="M300.537 86.0864H220.802L219.749 97.049H300.537V86.0864Z" stroke="#A3A3A3" stroke-miterlimit="10"/>
<path d="M300.537 97.0491H220.802L219.749 108.011H300.537V97.0491Z" stroke="#A3A3A3" stroke-miterlimit="10"/>
<path d="M300.537 108.011H220.802L219.749 118.973H300.537V108.011Z" stroke="#A3A3A3" stroke-miterlimit="10"/>
<path d="M300.537 118.973H220.802L219.749 129.935H300.537V118.973Z" stroke="#A3A3A3" stroke-miterlimit="10"/>
<path d="M300.537 129.936H220.802L219.749 140.897H300.537V129.936Z" stroke="#A3A3A3" stroke-miterlimit="10"/>
<path d="M300.537 140.897H220.802L219.749 151.859H300.537V140.897Z" stroke="#A3A3A3" stroke-miterlimit="10"/>
<path d="M300.537 151.859H220.802L219.749 162.822H300.537V151.859Z" stroke="#A3A3A3" stroke-miterlimit="10"/>
<path d="M300.537 162.822H220.802L219.749 173.784H300.537V162.822Z" stroke="#A3A3A3" stroke-miterlimit="10"/>
<path d="M304.531 0.864746H135.919V9.1345H304.531V0.864746Z" stroke="#A3A3A3" stroke-miterlimit="10"/>
<path d="M304.531 9.13525V154.775" stroke="#A3A3A3" stroke-miterlimit="10"/>
<path d="M302.693 9.36768V109.291" stroke="#A3A3A3" stroke-miterlimit="10"/>
<path d="M305.724 154.453H303.457V158.163H305.724V154.453Z" fill="#263238" stroke="#A3A3A3" stroke-miterlimit="10"/>
<path d="M303.683 108.495H301.416V112.205H303.683V108.495Z" fill="#263238" stroke="#A3A3A3" stroke-miterlimit="10"/>
<path d="M106.712 16.2319H20.024V124.248H106.712V16.2319Z" stroke="#A3A3A3" stroke-miterlimit="10"/>
<path d="M104.504 18.9839H22.2325V121.496H104.504V18.9839Z" stroke="#A3A3A3" stroke-miterlimit="10"/>
<path d="M78.504 51.3799H48.232V89.0995H78.504V51.3799Z" fill="#D6D6D6"/>
<path d="M91.576 228.152C91.576 228.152 91.8836 217.078 91.4921 207.559C91.1006 198.04 91.8904 177.614 91.8904 177.614" stroke="#263238" stroke-miterlimit="10"/>
<path d="M91.7081 189.623L87.3827 186.222" stroke="#263238" stroke-miterlimit="10"/>
<path d="M91.662 191.969L93.1997 189.475" stroke="#263238" stroke-miterlimit="10"/>
<path d="M91.3111 201.816L95.1515 198.639" stroke="#263238" stroke-miterlimit="10"/>
<path d="M91.8925 181.801L89.8636 179.957" stroke="#263238" stroke-miterlimit="10"/>
<path d="M91.274 203.546L88.736 200.821" stroke="#263238" stroke-miterlimit="10"/>
<path d="M91.4976 214.235L86.213 209.415" stroke="#263238" stroke-miterlimit="10"/>
<path d="M91.6331 220.172C91.6331 220.172 92.5874 219.87 95.5506 218.344" stroke="#263238" stroke-miterlimit="10"/>
<path d="M88.7188 191.333C86.5983 189.691 79.4782 189.984 78.1057 193.39C76.7331 196.796 81.0675 202.345 85.2657 201.956C86.9045 201.804 87.6125 201.688 88.2551 200.772L82.405 195.055L88.7346 200.142C88.9066 199.839 89.0504 199.495 89.168 199.102C89.243 198.851 89.3091 198.581 89.3669 198.291C89.7728 196.253 90.6988 192.866 88.7188 191.333Z" fill="#92E3A9"/>
<path d="M102.48 187.382C102.472 187.421 102.464 187.461 102.455 187.499C101.882 190.039 98.9775 191.479 96.5386 191.265C96.1911 191.234 95.8568 191.17 95.5327 191.082C94.8653 192.172 93.8705 194.447 94.9046 197.237C95.0119 197.527 95.1529 197.795 95.3174 198.044C96.0343 197.455 103.734 190.89 103.734 190.89L95.7432 198.588C98.145 201.167 103.804 200.813 105.769 196.035C107.705 191.323 105.255 188.066 102.48 187.382Z" fill="#92E3A9"/>
<path d="M98.5647 178.502C94.4209 177.592 90.7167 179.473 90.7862 183.792C90.8178 185.739 91.6799 187.621 93.0903 188.866L97.3167 183.006L93.7267 189.355C94.0611 189.58 94.4168 189.776 94.7952 189.929C95.307 190.137 95.8567 190.273 96.4374 190.324C98.8764 190.538 101.781 189.098 102.354 186.558C102.993 183.722 102.708 179.412 98.5647 178.502Z" fill="#92E3A9"/>
<path d="M93.7322 163.464C93.7322 163.464 93.3049 163.59 90.6568 164.888C88.0087 166.185 85.9117 170.377 88.0046 173.965C89.1942 176.005 90.5756 176.779 91.5471 177.067L92.608 166.765L92.1801 177.203C92.5557 177.253 92.7848 177.226 92.7848 177.226C94.5062 177.047 97.2314 174.99 97.49 170.765C97.7487 166.541 93.7322 163.464 93.7322 163.464Z" fill="#92E3A9"/>
<path d="M81.6275 172.832L89.6193 179.224C89.7652 178.742 89.6964 178.326 89.6964 178.326C89.3297 174.667 85.6771 172.548 83.2677 171.782C80.859 171.017 79.1865 172.382 80.7352 175.885C82.2839 179.386 86.3506 181.056 88.167 180.55C88.6947 180.403 89.0407 180.152 89.2719 179.873L81.6275 172.832Z" fill="#92E3A9"/>
<path d="M87.1288 181.027C85.4019 181.084 82.6079 179.851 80.9808 177.477C79.3028 177.444 77.9109 178.238 77.461 180.341C76.645 184.157 79.4032 188.15 83.3812 187.662C85.1198 187.448 86.1209 186.853 86.696 186.25L79.5849 179.763L87.1948 185.56C87.4549 185.067 87.4735 184.684 87.4735 184.684C87.4735 184.684 87.9241 182.811 87.1288 181.027Z" fill="#92E3A9"/>
<path d="M87.0868 202.233C86.5447 202.488 85.8766 202.645 85.0448 202.722C82.4456 202.963 79.7961 200.927 78.4793 198.533C76.8838 198.79 75.6103 199.647 75.3014 201.393C74.5122 205.857 78.6444 211.738 82.8205 210.809C84.138 210.516 85.0682 209.96 85.7239 209.335L76.6051 200.566L86.2543 208.745C87.1818 207.538 87.2815 206.304 87.2815 206.304C87.2815 206.304 88.0672 204.261 87.0868 202.233Z" fill="#92E3A9"/>
<path d="M105.428 211.393C102.364 207.845 98.7126 211.021 98.7126 211.021C98.7126 211.021 96.4739 211.761 95.6318 214.929C95.3628 215.943 95.4158 216.964 95.7432 217.848L104.965 212.479L95.9675 218.353C96.8055 219.945 98.6377 220.918 101.144 220.214C105.203 219.074 108.491 214.941 105.428 211.393Z" fill="#92E3A9"/>
<path d="M97.7866 224.808H85.0228V243.708H97.7866V224.808Z" fill="#263238"/>
<path d="M197.243 169.781L196.751 165.953C196.214 162.307 194.822 152.758 194.822 151.838C194.822 150.699 189.553 147.424 189.553 147.424L183.208 156.453L178.854 164.953C178.854 164.953 181.654 167.488 184.142 169.353C186.63 171.219 189.553 171.774 189.553 171.774L202.244 215.314L210.788 198.059L197.243 169.781Z" fill="white" stroke="#263238" stroke-miterlimit="10" stroke-linecap="round" stroke-linejoin="round"/>
<path d="M187.234 165.575L178.111 166.024C176.227 166.117 174.625 164.665 174.532 162.782L173.319 138.128C173.226 136.244 174.677 134.642 176.561 134.549L185.685 134.1C187.569 134.007 189.171 135.459 189.263 137.343L190.477 161.997C190.57 163.88 189.118 165.482 187.234 165.575Z" fill="white" stroke="#263238" stroke-miterlimit="10" stroke-linecap="round" stroke-linejoin="round"/>
<path d="M188.232 165.503L179.109 165.953C177.225 166.045 175.623 164.594 175.531 162.71L174.317 138.056C174.224 136.172 175.676 134.57 177.56 134.478L186.683 134.029C188.567 133.936 190.169 135.387 190.261 137.271L191.475 161.925C191.568 163.809 190.116 165.41 188.232 165.503Z" fill="#263238" stroke="#263238" stroke-miterlimit="10" stroke-linecap="round" stroke-linejoin="round"/>
<path d="M189.787 138.336C189.707 136.714 188.506 135.418 186.971 135.147L185.877 136.605L179.62 136.995L177.665 135.692L186.261 135.094C186.243 135.095 186.226 135.091 186.208 135.092L178.136 135.489C176.252 135.582 174.801 137.185 174.894 139.068L176.005 161.645C176.098 163.529 177.701 164.98 179.584 164.888L187.655 164.49C189.539 164.397 190.991 162.795 190.898 160.912L189.787 138.336Z" fill="#92E3A9" stroke="#263238" stroke-miterlimit="10" stroke-linecap="round" stroke-linejoin="round"/>
<path d="M194.196 170.551C194.196 170.551 190.049 170.136 189.428 165.783C188.806 161.429 190.878 156.453 190.878 156.453C190.878 156.453 188.806 155.209 186.525 154.38C184.244 153.551 185.903 149.196 186.732 150.44C187.561 151.684 193.366 152.513 195.025 153.55C196.684 154.587 197.098 160.599 197.098 160.599L197.242 169.781" fill="white"/>
<path d="M194.196 170.551C194.196 170.551 190.049 170.136 189.428 165.783C188.806 161.429 190.878 156.453 190.878 156.453C190.878 156.453 188.806 155.209 186.525 154.38C184.244 153.551 185.903 149.196 186.732 150.44C187.561 151.684 193.366 152.513 195.025 153.55C196.684 154.587 197.098 160.599 197.098 160.599L197.242 169.781" stroke="#263238" stroke-miterlimit="10" stroke-linecap="round" stroke-linejoin="round"/>
<path d="M254.469 244.648L275.28 190.13C277.004 185.613 274.848 180.542 270.4 178.649C265.859 176.717 260.61 178.804 258.637 183.327L231.884 244.648H254.469Z" fill="#263238" stroke="#263238" stroke-miterlimit="10" stroke-linecap="round" stroke-linejoin="round"/>
<path d="M202.115 219.88C201.302 220.49 184.845 240.161 181.094 244.648H229.151C232.044 240.621 243.669 224.141 248.669 212.541C254.402 199.24 254.861 183.416 253.714 178.6C252.567 173.784 251.421 170.344 251.421 170.344C251.421 170.344 229.176 174.243 217.48 180.435C217.48 180.435 203.261 191.443 200.509 198.552C197.757 205.661 203.032 219.192 202.115 219.88Z" fill="#92E3A9" stroke="#263238" stroke-miterlimit="10" stroke-linecap="round" stroke-linejoin="round"/>
<path d="M241.506 211.89C242.033 210.523 242.53 209.145 242.985 207.753C245.111 201.253 247.799 193.426 246.375 186.544C244.999 179.893 236.514 180.581 231.698 184.251C226.882 187.92 223.442 196.635 221.378 204.203C219.314 211.771 210.557 229.049 210.557 229.049C210.557 229.049 179.138 222.398 175.469 221.022C171.8 219.646 166.754 217.353 163.314 214.142C159.874 210.931 150.701 206.115 147.49 202.446C144.279 198.777 143.821 199.923 144.05 201.299C144.279 202.675 145.885 204.28 147.031 205.656C148.178 207.032 150.471 209.096 150.471 209.096C150.471 209.096 145.196 207.949 142.674 207.032C140.151 206.115 139.005 204.739 138.317 205.885C137.629 207.032 138.317 208.408 140.61 209.554C142.903 210.701 151.847 213.224 151.847 213.224C151.847 213.224 144.508 213.224 142.674 213.224C140.839 213.224 138.317 214.37 139.463 215.517C140.61 216.664 146.343 215.976 147.948 215.976C149.553 215.976 152.764 215.976 152.764 215.976C152.764 215.976 146.343 218.269 144.508 218.498C142.673 218.728 142.903 220.563 144.279 220.792C145.655 221.021 155.516 218.957 155.516 218.957C155.516 218.957 159.644 222.168 161.479 222.626C163.314 223.085 166.524 223.085 166.524 223.085C166.524 223.085 183.036 234.093 195.421 238.451C203.932 241.445 219.812 249.738 226.571 240.174C231.365 233.392 238.531 219.599 241.506 211.89Z" fill="white" stroke="#263238" stroke-miterlimit="10" stroke-linecap="round" stroke-linejoin="round"/>
<path d="M235.605 113.392C235.605 113.392 230.694 119.776 230.203 123.214C229.712 126.651 230.449 128.616 228.73 129.598C227.012 130.581 221.855 130.581 221.118 133.035C220.381 135.491 223.819 139.91 223.819 139.91C223.819 139.91 224.31 150.96 225.292 153.415C226.275 155.871 235.114 156.362 235.114 156.362L233.641 166.92L248.128 162.5L252.057 148.259C252.057 148.259 257.704 145.803 259.669 137.946C261.633 130.089 258.196 121.985 249.601 116.829C241.008 111.674 235.605 113.392 235.605 113.392Z" fill="white" stroke="#263238" stroke-miterlimit="10" stroke-linecap="round" stroke-linejoin="round"/>
<path d="M235.115 156.362L242.483 157.125L234.616 161.276L235.115 156.362Z" fill="#263238" stroke="#263238" stroke-miterlimit="10" stroke-linecap="round" stroke-linejoin="round"/>
<path d="M227.503 141.384C227.503 141.384 232.168 142.121 234.624 138.929" stroke="#263238" stroke-miterlimit="10" stroke-linecap="round" stroke-linejoin="round"/>
<path d="M233.925 128.918C233.561 129.83 232.837 130.398 232.308 130.187C231.781 129.976 231.648 129.065 232.013 128.153C232.378 127.24 233.102 126.672 233.63 126.883C234.158 127.095 234.291 128.005 233.925 128.918Z" fill="#263238"/>
<path d="M233.344 122.169C233.344 122.169 236.059 120.484 237.838 123.854" stroke="#263238" stroke-miterlimit="10" stroke-linecap="round" stroke-linejoin="round"/>
<path d="M229.131 141.549C229.131 141.549 229.037 145.387 230.441 145.294C231.845 145.2 233.531 140.145 233.531 140.145C233.531 140.145 232.501 141.362 229.131 141.549Z" fill="#263238" stroke="#263238" stroke-miterlimit="10" stroke-linecap="round" stroke-linejoin="round"/>
<path d="M250.733 160.712C250.733 160.712 232.386 167.592 226.882 169.427C221.378 171.262 215.874 182.499 215.874 182.499C215.874 182.499 243.165 173.326 248.21 171.95L252.109 171.491C252.109 171.491 253.256 162.088 250.733 160.712Z" fill="white" stroke="#263238" stroke-miterlimit="10" stroke-linecap="round" stroke-linejoin="round"/>
<path d="M261.747 102.33C261.747 102.33 261.098 102.655 263.368 97.7918C265.637 92.929 254.614 88.3895 241.969 92.2802C229.325 96.1708 230.946 106.545 232.567 111.409C234.188 116.271 243.59 115.299 243.266 118.541C242.942 121.783 240.997 125.026 244.563 127.943C248.13 130.861 245.211 130.213 246.184 131.834C247.157 133.455 250.399 132.482 251.372 133.131C252.344 133.779 254.938 136.049 252.02 140.587C249.102 145.126 245.86 144.478 246.508 149.666C247.156 154.853 248.453 159.716 255.262 161.662C262.07 163.607 267.906 163.931 268.878 158.42C269.851 152.908 266.285 151.611 270.175 149.342C274.066 147.072 284.765 146.1 286.062 135.401C287.359 124.701 284.765 114.975 277.308 108.816C269.852 102.655 261.747 102.33 261.747 102.33Z" fill="#263238" stroke="#263238" stroke-miterlimit="10" stroke-linecap="round" stroke-linejoin="round"/>
<path d="M255.764 155.841C257.429 158.79 260.777 160.07 262.611 159.381C265.39 158.339 265.738 153.129 262.264 152.434C258.79 151.739 257.749 153.824 259.485 155.56" stroke="#9C9C9C" stroke-miterlimit="10" stroke-linecap="round" stroke-linejoin="round"/>
<path d="M242.556 110.175C244.295 112.911 248.523 114.736 256.011 117.005C267.474 120.479 270.253 129.51 267.474 134.025C264.695 138.541 256.359 143.057 254.969 150.003C254.733 151.183 254.717 152.263 254.868 153.238" stroke="#9C9C9C" stroke-miterlimit="10" stroke-linecap="round" stroke-linejoin="round"/>
<path d="M250.801 103.111C250.801 103.111 254.969 102.763 252.885 99.2894C250.801 95.8157 242.811 98.5945 241.77 104.847C241.589 105.931 241.554 106.9 241.68 107.779" stroke="#9C9C9C" stroke-miterlimit="10" stroke-linecap="round" stroke-linejoin="round"/>
<path d="M268.03 115.668C271.61 117.562 275.998 121.261 276.506 128.12C277.201 137.499 273.033 140.625 266.086 144.793C259.138 148.962 262.265 152.435 262.265 152.435" stroke="#9C9C9C" stroke-miterlimit="10" stroke-linecap="round" stroke-linejoin="round"/>
<path d="M263.306 113.879C263.306 113.879 264.453 114.108 266.072 114.76" stroke="#9C9C9C" stroke-miterlimit="10" stroke-linecap="round" stroke-linejoin="round"/>
<path d="M172.384 33.6487C161.848 36.7983 153.502 45.0227 150.185 55.4851" stroke="#263238" stroke-miterlimit="10"/>
<path d="M188.914 32.9903C186.664 32.5108 184.329 32.2583 181.937 32.2583C180.347 32.2583 178.783 32.3698 177.253 32.5851" stroke="#263238" stroke-miterlimit="10"/>
<path d="M213.746 75.4544C214.717 72.3288 215.24 69.0065 215.24 65.5617C215.24 51.0091 205.906 38.6368 192.898 34.1042" stroke="#263238" stroke-miterlimit="10"/>
<path d="M210.67 82.4099C211.582 80.8578 212.372 79.2252 213.027 77.5251" stroke="#263238" stroke-miterlimit="10"/>
<path d="M168 95.8171C172.241 97.7731 176.961 98.8643 181.937 98.8643C190.803 98.8643 198.859 95.4002 204.826 89.7517" stroke="#263238" stroke-miterlimit="10"/>
<path d="M162.724 92.7671C163.704 93.4606 164.723 94.1018 165.777 94.688" stroke="#263238" stroke-miterlimit="10"/>
<path d="M149.056 60.2407C148.778 61.9731 148.633 63.7502 148.633 65.5617C148.633 75.7297 153.191 84.834 160.373 90.9427" stroke="#263238" stroke-miterlimit="10"/>
<path d="M181.937 95.698C198.581 95.698 212.074 82.2054 212.074 65.5615C212.074 48.9176 198.581 35.425 181.937 35.425C165.293 35.425 151.801 48.9176 151.801 65.5615C151.801 82.2054 165.293 95.698 181.937 95.698Z" fill="white" stroke="#263238" stroke-miterlimit="10"/>
<path d="M200.467 85.5542H166.93C165.977 85.5542 165.17 84.8538 165.035 83.9113L159.073 45.0819H151.619C150.562 45.0819 149.705 44.2247 149.705 43.1679C149.705 42.1112 150.562 41.2539 151.619 41.2539H160.733C161.686 41.2539 162.493 41.9543 162.628 42.8969L168.59 81.7262H200.468C201.525 81.7262 202.382 82.5834 202.382 83.6402C202.38 84.697 201.524 85.5542 200.467 85.5542Z" fill="white" stroke="#263238" stroke-miterlimit="10" stroke-linecap="round" stroke-linejoin="round"/>
<path d="M152.368 45.6399H149.241C147.971 45.6399 146.941 44.61 146.941 43.3392V43.0668C146.941 41.796 147.971 40.7661 149.241 40.7661H152.368C153.638 40.7661 154.668 41.796 154.668 43.0668V43.3392C154.668 44.61 153.638 45.6399 152.368 45.6399Z" fill="#263238" stroke="#263238" stroke-miterlimit="10" stroke-linecap="round" stroke-linejoin="round"/>
<path d="M164.062 77.4881H167.802L167.371 74.7554H163.631L164.062 77.4881Z" fill="#263238" stroke="#263238" stroke-miterlimit="10" stroke-linecap="round" stroke-linejoin="round"/>
<path d="M199.793 75.612H163.229L160.003 50.4587H203.019L199.793 75.612Z" fill="#92E3A9" stroke="#263238" stroke-miterlimit="10" stroke-linecap="round" stroke-linejoin="round"/>
<path d="M172.355 72.8745C171.344 72.8745 170.524 72.0544 170.524 71.043V58.3632C170.524 57.3518 171.344 56.5317 172.355 56.5317C173.367 56.5317 174.187 57.3518 174.187 58.3632V71.043C174.187 72.0544 173.367 72.8745 172.355 72.8745Z" fill="white" stroke="#263238" stroke-miterlimit="10" stroke-linecap="round" stroke-linejoin="round"/>
<path d="M178.836 72.8745C177.825 72.8745 177.005 72.0544 177.005 71.043V58.3632C177.005 57.3518 177.825 56.5317 178.836 56.5317C179.848 56.5317 180.668 57.3518 180.668 58.3632V71.043C180.668 72.0544 179.848 72.8745 178.836 72.8745Z" fill="white" stroke="#263238" stroke-miterlimit="10" stroke-linecap="round" stroke-linejoin="round"/>
<path d="M185.317 72.8745C184.305 72.8745 183.485 72.0544 183.485 71.043V58.3632C183.485 57.3518 184.305 56.5317 185.317 56.5317C186.328 56.5317 187.148 57.3518 187.148 58.3632V71.043C187.149 72.0544 186.329 72.8745 185.317 72.8745Z" fill="white" stroke="#263238" stroke-miterlimit="10" stroke-linecap="round" stroke-linejoin="round"/>
<path d="M191.798 72.8745C190.786 72.8745 189.966 72.0544 189.966 71.043V58.3632C189.966 57.3518 190.786 56.5317 191.798 56.5317C192.809 56.5317 193.629 57.3518 193.629 58.3632V71.043C193.629 72.0544 192.809 72.8745 191.798 72.8745Z" fill="white" stroke="#263238" stroke-miterlimit="10" stroke-linecap="round" stroke-linejoin="round"/>
<path d="M174.83 89.888C177.319 89.888 179.338 87.8695 179.338 85.3796C179.338 82.8896 177.319 80.8711 174.83 80.8711C172.34 80.8711 170.321 82.8896 170.321 85.3796C170.321 87.8695 172.34 89.888 174.83 89.888Z" fill="#263238" stroke="#263238" stroke-miterlimit="10" stroke-linecap="round" stroke-linejoin="round"/>
<path d="M174.83 87.3116C175.896 87.3116 176.761 86.4466 176.761 85.3797C176.761 84.3127 175.896 83.4478 174.83 83.4478C173.763 83.4478 172.898 84.3127 172.898 85.3797C172.898 86.4466 173.763 87.3116 174.83 87.3116Z" fill="white" stroke="#263238" stroke-miterlimit="10" stroke-linecap="round" stroke-linejoin="round"/>
<path d="M190.086 89.888C192.576 89.888 194.594 87.8695 194.594 85.3796C194.594 82.8896 192.576 80.8711 190.086 80.8711C187.596 80.8711 185.577 82.8896 185.577 85.3796C185.577 87.8695 187.596 89.888 190.086 89.888Z" fill="#263238" stroke="#263238" stroke-miterlimit="10" stroke-linecap="round" stroke-linejoin="round"/>
<path d="M192.018 85.3797C192.018 84.3126 191.153 83.4478 190.086 83.4478C189.019 83.4478 188.154 84.3126 188.154 85.3797C188.154 86.4467 189.019 87.3116 190.086 87.3116C191.153 87.3116 192.018 86.4467 192.018 85.3797Z" fill="white" stroke="#263238" stroke-miterlimit="10" stroke-linecap="round" stroke-linejoin="round"/>
<path d="M198.192 54.5591H202.162" stroke="#263238" stroke-miterlimit="10" stroke-linecap="round" stroke-linejoin="round"/>
<path d="M193.206 54.5591H196.032" stroke="#263238" stroke-miterlimit="10" stroke-linecap="round" stroke-linejoin="round"/>
<path d="M161.023 54.5591H191.046" stroke="#263238" stroke-miterlimit="10" stroke-linecap="round" stroke-linejoin="round"/>
<path d="M181.937 95.6975V131.123" stroke="#263238" stroke-miterlimit="10"/>
<path d="M181.937 133.04C182.996 133.04 183.854 132.182 183.854 131.123C183.854 130.065 182.996 129.207 181.937 129.207C180.879 129.207 180.02 130.065 180.02 131.123C180.02 132.182 180.879 133.04 181.937 133.04Z" fill="#263238" stroke="#263238" stroke-miterlimit="10" stroke-linecap="round" stroke-linejoin="round"/>
<path d="M203.492 61.4542C208.241 61.4542 212.092 57.6038 212.092 52.8542C212.092 48.1045 208.241 44.2542 203.492 44.2542C198.742 44.2542 194.892 48.1045 194.892 52.8542C194.892 57.6038 198.742 61.4542 203.492 61.4542Z" fill="#92E3A9"/>
<path d="M203.492 62.4862C198.18 62.4862 193.86 58.1655 193.86 52.8542C193.86 47.5428 198.18 43.2222 203.492 43.2222C208.803 43.2222 213.124 47.5428 213.124 52.8542C213.124 58.1655 208.802 62.4862 203.492 62.4862ZM203.492 45.2862C199.319 45.2862 195.924 48.6814 195.924 52.8542C195.924 57.0269 199.319 60.4222 203.492 60.4222C207.664 60.4222 211.06 57.0269 211.06 52.8542C211.06 48.6814 207.664 45.2862 203.492 45.2862Z" fill="#263238"/>
<path d="M204.054 55.99C204.031 55.99 204.008 55.9893 203.983 55.988C203.646 55.9646 203.342 55.7781 203.168 55.4878L199.853 49.9439C199.56 49.4547 199.721 48.8211 200.21 48.528C200.698 48.237 201.333 48.3938 201.625 48.8844L204.179 53.1541L211.287 44.2954C211.642 43.851 212.293 43.7794 212.737 44.1365C213.182 44.4929 213.253 45.1423 212.897 45.5875L204.859 55.6034C204.663 55.849 204.366 55.99 204.054 55.99Z" fill="white"/>
<path d="M100.519 142.45C100.519 142.45 105.788 140.944 106.648 140.514C107.508 140.084 111.702 135.568 111.702 134.923C111.702 134.278 110.197 134.6 109.014 135.246C107.831 135.891 104.175 139.869 104.175 139.869L100.519 142.45Z" fill="white" stroke="#263238" stroke-miterlimit="10" stroke-linecap="round" stroke-linejoin="round"/>
<path d="M97.186 143.74C97.186 143.74 104.175 140.622 104.928 140.084C105.681 139.546 108.799 136.32 109.014 135.245C109.229 134.17 106.863 134.492 106.218 134.815C105.573 135.138 101.702 139.008 101.272 139.438C100.842 139.868 96.4333 143.524 96.4333 143.524C96.4333 143.524 95.0353 144.278 97.186 143.74Z" fill="white" stroke="#263238" stroke-miterlimit="10" stroke-linecap="round" stroke-linejoin="round"/>
<path d="M71.9178 145.392C71.9178 145.392 78.8198 138.234 80.0981 137.467C81.3764 136.699 96.7147 136.699 96.7147 136.699C96.7147 136.699 104.129 134.654 105.406 134.399C106.684 134.143 106.429 136.699 104.639 137.722C102.85 138.744 97.4811 143.601 95.4364 144.88C93.3909 146.158 80.3533 147.948 80.3533 147.948L73.9625 155.617L67.3157 151.527L71.9178 145.392Z" fill="white" stroke="#263238" stroke-miterlimit="10" stroke-linecap="round" stroke-linejoin="round"/>
<path d="M96.7147 136.7C96.7147 136.7 99.982 136.321 99.6593 137.288C99.3366 138.256 98.154 140.299 95.8959 140.406C93.6379 140.514 86.6485 140.836 86.6485 140.836" fill="white"/>
<path d="M96.7147 136.7C96.7147 136.7 99.982 136.321 99.6593 137.288C99.3366 138.256 98.154 140.299 95.8959 140.406C93.6379 140.514 86.6485 140.836 86.6485 140.836" stroke="#263238" stroke-miterlimit="10" stroke-linecap="round" stroke-linejoin="round"/>
<path d="M67.3157 151.527C67.3157 151.527 61.5331 151.08 60.3862 151.768C59.24 152.456 44.792 168.739 44.792 168.739L50.0077 193.784C49.7745 194.798 73.5126 169.999 76.8989 162.547C78.3609 159.329 74.8349 155.438 74.8349 155.438L67.3157 151.527Z" fill="#92E3A9" stroke="#263238" stroke-miterlimit="10" stroke-linecap="round" stroke-linejoin="round"/>
<path d="M69.0454 144.964L80.5336 152.956L75.6653 158.779L64.6401 151.284L69.0454 144.964Z" fill="#92E3A9" stroke="#263238" stroke-miterlimit="10" stroke-linecap="round" stroke-linejoin="round"/>
<path d="M125.204 104.544L64.7325 107.529L66.208 137.421L126.679 134.436L125.204 104.544Z" fill="white" stroke="#263238" stroke-miterlimit="10" stroke-linecap="round" stroke-linejoin="round"/>
<path d="M78.3609 108.555L66.5752 109.137L66.8724 115.157L78.6581 114.575L78.3609 108.555Z" fill="#92E3A9" stroke="#263238" stroke-miterlimit="10" stroke-linecap="round" stroke-linejoin="round"/>
<path d="M125.203 104.545L112.834 105.155L114.31 135.047L126.679 134.437L125.203 104.545Z" fill="#DBDBDB" stroke="#263238" stroke-miterlimit="10" stroke-linecap="round" stroke-linejoin="round"/>
<path d="M125.201 104.542C125.201 104.542 130.026 107.882 131.928 111.305" stroke="#263238" stroke-miterlimit="10" stroke-linecap="round" stroke-linejoin="round"/>
<path d="M130.216 109.023L130.026 116.44L135.732 123.286L143.719 116.25L138.014 109.213L130.216 109.023Z" fill="#92E3A9" stroke="#263238" stroke-miterlimit="10" stroke-linecap="round" stroke-linejoin="round"/>
<path d="M95.704 91.9121V98.4481" stroke="#263238" stroke-miterlimit="10" stroke-linecap="round" stroke-linejoin="round"/>
<path d="M95.704 149.36V155.896" stroke="#263238" stroke-miterlimit="10" stroke-linecap="round" stroke-linejoin="round"/>
<path d="M56.832 101.888L61.304 105.328" stroke="#263238" stroke-miterlimit="10" stroke-linecap="round" stroke-linejoin="round"/>
<path d="M61.648 124.936L54.424 125.28" stroke="#263238" stroke-miterlimit="10" stroke-linecap="round" stroke-linejoin="round"/>
<path d="M66.12 142.136L61.648 146.608" stroke="#263238" stroke-miterlimit="10" stroke-linecap="round" stroke-linejoin="round"/>
<path d="M129.072 137.32L134.576 142.48" stroke="#263238" stroke-miterlimit="10" stroke-linecap="round" stroke-linejoin="round"/>
<path d="M127.696 101.544L132.168 96.384" stroke="#263238" stroke-miterlimit="10" stroke-linecap="round" stroke-linejoin="round"/>
<path d="M145.403 239.125H76.9167V244.648H145.403V239.125Z" fill="white" stroke="#263238" stroke-miterlimit="10" stroke-linecap="round"/>
<path d="M82.7716 237.263H78.0334V239.04H82.7716V237.263Z" fill="white" stroke="#263238" stroke-miterlimit="10" stroke-linecap="round"/>
<path d="M88.8914 237.263H84.1531V239.04H88.8914V237.263Z" fill="white" stroke="#263238" stroke-miterlimit="10" stroke-linecap="round"/>
<path d="M95.0119 237.263H90.2736V239.04H95.0119V237.263Z" fill="white" stroke="#263238" stroke-miterlimit="10" stroke-linecap="round"/>
<path d="M101.132 237.263H96.3933V239.04H101.132V237.263Z" fill="white" stroke="#263238" stroke-miterlimit="10" stroke-linecap="round"/>
<path d="M107.251 237.263H102.513V239.04H107.251V237.263Z" fill="white" stroke="#263238" stroke-miterlimit="10" stroke-linecap="round"/>
<path d="M113.372 237.263H108.634V239.04H113.372V237.263Z" fill="white" stroke="#263238" stroke-miterlimit="10" stroke-linecap="round"/>
<path d="M119.492 237.263H114.753V239.04H119.492V237.263Z" fill="white" stroke="#263238" stroke-miterlimit="10" stroke-linecap="round"/>
<path d="M125.611 237.263H120.873V239.04H125.611V237.263Z" fill="white" stroke="#263238" stroke-miterlimit="10" stroke-linecap="round"/>
<path d="M131.732 237.263H126.994V239.04H131.732V237.263Z" fill="white" stroke="#263238" stroke-miterlimit="10" stroke-linecap="round"/>
<path d="M137.852 237.263H133.113V239.04H137.852V237.263Z" fill="white" stroke="#263238" stroke-miterlimit="10" stroke-linecap="round"/>
<path d="M143.971 237.263H139.233V239.04H143.971V237.263Z" fill="white" stroke="#263238" stroke-miterlimit="10" stroke-linecap="round"/>
<path d="M62.0044 244.648H32.1087C30.2642 244.648 28.5311 243.833 27.3539 242.412C26.1768 240.992 25.6993 239.138 26.0419 237.325L39.3884 166.832L42.644 167.449L29.2982 237.943C29.14 238.782 29.3615 239.641 29.9064 240.298C30.4513 240.957 31.2549 241.334 32.1094 241.334H62.0051L62.0044 244.648Z" fill="#263238"/>
<path d="M40.6482 163.09L35.8618 164.563L39.5439 184.078L45.4353 182.973L40.6482 163.09Z" fill="#263238"/>
<path d="M51.6754 224.311L29.4207 111.927L31.1304 112.987C34.9398 115.351 37.5969 119.191 38.4679 123.589L55.6252 210.231C56.6263 215.286 55.1588 220.515 51.6754 224.311Z" fill="white" stroke="#263238" stroke-miterlimit="10" stroke-linecap="round"/>
<path d="M297.056 244.648H306.232" stroke="#263238" stroke-miterlimit="10" stroke-linecap="round"/>
<path d="M2.2619 244.648H289.987" stroke="#263238" stroke-miterlimit="10" stroke-linecap="round"/>
</svg>
