<svg width="14" height="14" viewBox="0 0 14 14" fill="none" xmlns="http://www.w3.org/2000/svg">
<path d="M6.99358 3.80002V8.28002M6.99358 9.72V10.04M7.00002 1.40002L7.62703 1.43524L8.24614 1.54043L8.84959 1.71428L9.42977 1.9546L9.9794 2.25837L10.4916 2.62177L10.9598 3.04023L11.3783 3.50848L11.7417 4.02064L12.0454 4.57028L12.2858 5.15046L12.4596 5.75391L12.5648 6.37302L12.6 7.00002L12.5648 7.62703L12.4596 8.24614L12.2858 8.84959L12.0454 9.42977L11.7417 9.9794L11.3783 10.4916L10.9598 10.9598L10.4916 11.3783L9.9794 11.7417L9.42977 12.0454L8.84959 12.2858L8.24614 12.4596L7.62703 12.5648L7.00002 12.6L6.37302 12.5648L5.75391 12.4596L5.15046 12.2858L4.57028 12.0454L4.02064 11.7417L3.50848 11.3783L3.04023 10.9598L2.62177 10.4916L2.25837 9.9794L1.9546 9.42977L1.71428 8.84959L1.54043 8.24614L1.43524 7.62703L1.40002 7.00002L1.43524 6.37302L1.54043 5.75391L1.71428 5.15046L1.9546 4.57028L2.25837 4.02064L2.62177 3.50848L3.04023 3.04023L3.50848 2.62177L4.02064 2.25837L4.57028 1.9546L5.15046 1.71428L5.75391 1.54043L6.37302 1.43524L7.00002 1.40002Z" stroke="#414141" stroke-linecap="round" stroke-linejoin="round"/>
</svg>
