<svg width="14" height="14" viewBox="0 0 14 14" fill="none" xmlns="http://www.w3.org/2000/svg">
<g clip-path="url(#clip0_480_2626)">
<path d="M8.19559 3.50033C8.76536 3.61149 9.28899 3.89014 9.69947 4.30062C10.1099 4.7111 10.3886 5.23473 10.4998 5.80449M8.19559 1.16699C9.37934 1.2985 10.4832 1.82859 11.3259 2.67025C12.1686 3.5119 12.7001 4.61508 12.8331 5.79866M5.9655 8.08712C5.26458 7.38619 4.71112 6.59365 4.30512 5.74804C4.2702 5.67531 4.25274 5.63894 4.23932 5.59292C4.19165 5.42938 4.22589 5.22856 4.32507 5.09006C4.35297 5.05109 4.38631 5.01775 4.453 4.95106C4.65693 4.74713 4.7589 4.64516 4.82557 4.54262C5.07698 4.15594 5.07698 3.65743 4.82557 3.27074C4.7589 3.16821 4.65693 3.06624 4.453 2.8623L4.33932 2.74863C4.02931 2.43862 3.87431 2.28362 3.70784 2.19941C3.37676 2.03196 2.98577 2.03196 2.6547 2.19941C2.48822 2.28362 2.33322 2.43862 2.02321 2.74863L1.93126 2.84058C1.62231 3.14953 1.46784 3.304 1.34986 3.51402C1.21895 3.74706 1.12482 4.10902 1.12562 4.37631C1.12633 4.6172 1.17306 4.78183 1.26651 5.11109C1.76875 6.88057 2.71636 8.55028 4.10934 9.94327C5.50233 11.3363 7.17204 12.2839 8.94152 12.7861C9.27078 12.8796 9.43541 12.9263 9.6763 12.927C9.9436 12.9278 10.3056 12.8337 10.5386 12.7028C10.7486 12.5848 10.9031 12.4303 11.212 12.1214L11.304 12.0294C11.614 11.7194 11.769 11.5644 11.8532 11.3979C12.0207 11.0668 12.0207 10.6759 11.8532 10.3448C11.769 10.1783 11.614 10.0233 11.304 9.71329L11.1903 9.59962C10.9864 9.39568 10.8844 9.29371 10.7819 9.22705C10.3952 8.97563 9.89668 8.97563 9.50999 9.22705C9.40746 9.29371 9.30549 9.39568 9.10155 9.59962C9.03487 9.6663 9.00153 9.69964 8.96255 9.72755C8.82405 9.82672 8.62324 9.86096 8.4597 9.81329C8.41368 9.79988 8.37731 9.78242 8.30457 9.74749C7.45896 9.3415 6.66642 8.78804 5.9655 8.08712Z" stroke="#414141" stroke-linecap="round" stroke-linejoin="round"/>
</g>
<defs>
<clipPath id="clip0_480_2626">
<rect width="14" height="14" fill="white"/>
</clipPath>
</defs>
</svg>
