<svg width="16" height="18" viewBox="0 0 16 18" fill="none" xmlns="http://www.w3.org/2000/svg">
<path d="M11.0001 9.89905L11.0001 4.49963L13.4001 4.49964C14.0628 4.49964 14.6001 5.03689 14.6001 5.69964L14.6001 15.8996C14.6001 16.5624 14.0628 17.0997 13.4 17.0996L6.20031 17.0995C5.53749 17.0996 5.0001 16.5624 5.0001 15.8995L5.0001 13.4993L7.34296 13.4991M11.0001 9.89905L11.0001 12.2995C11.0001 12.9624 10.4627 13.4996 9.79988 13.4995L7.34296 13.4991M11.0001 9.89905L11.0001 2.09965C11.0001 1.43691 10.4628 0.899652 9.8001 0.899652L2.6001 0.899652C1.93736 0.899652 1.4001 1.43691 1.4001 2.09965L1.4001 12.2996C1.4001 12.9624 1.93744 13.4997 2.60023 13.4996L7.34296 13.4991" stroke="#414141" stroke-linecap="round" stroke-linejoin="round"/>
</svg>
