<svg width="12" height="14" viewBox="0 0 12 14" fill="none" xmlns="http://www.w3.org/2000/svg">
<path d="M1.33335 7L4.00002 4.33333M1.33335 7L4.00002 9.66667M1.33335 7H8.00002M4.66669 13C5.45462 13 6.23483 12.8448 6.96279 12.5433C7.69074 12.2417 8.35218 11.7998 8.90933 11.2426C9.46648 10.6855 9.90844 10.0241 10.21 9.2961C10.5115 8.56815 10.6667 7.78793 10.6667 7C10.6667 6.21207 10.5115 5.43185 10.21 4.7039C9.90844 3.97595 9.46648 3.31451 8.90933 2.75736C8.35218 2.20021 7.69074 1.75825 6.96279 1.45672C6.23483 1.15519 5.45462 1 4.66669 1" stroke="#414141" stroke-linecap="round" stroke-linejoin="round"/>
</svg>
