<svg width="14" height="14" viewBox="0 0 14 14" fill="none" xmlns="http://www.w3.org/2000/svg">
<path d="M5.21059 13C4.17504 12.6909 3.23719 12.1188 2.48832 11.3396C2.72927 11.0539 2.87947 10.7027 2.9197 10.3311C2.95993 9.95945 2.88837 9.58428 2.71417 9.25356C2.53997 8.92284 2.27105 8.65162 1.94183 8.4746C1.61261 8.29758 1.23806 8.22282 0.866112 8.25988C0.781375 7.84481 0.738793 7.42224 0.739015 6.99861C0.739015 6.34434 0.83919 5.71323 1.02577 5.12032H1.05206C1.37129 5.12042 1.68529 5.03916 1.96439 4.88421C2.24349 4.72925 2.47849 4.50571 2.64721 4.23471C2.81592 3.9637 2.91278 3.65416 2.92863 3.33533C2.94449 3.01649 2.87882 2.69887 2.73782 2.41246C3.47179 1.72902 4.35943 1.23222 5.32579 0.963989C5.48306 1.27278 5.72268 1.53204 6.01816 1.7131C6.31363 1.89415 6.65343 1.98993 6.99997 1.98985C7.3465 1.98993 7.6863 1.89415 7.98177 1.7131C8.27725 1.53204 8.51688 1.27278 8.67414 0.963989C9.6405 1.23222 10.5281 1.72902 11.2621 2.41246C11.1201 2.70087 11.0545 3.02091 11.0715 3.34195C11.0886 3.66298 11.1878 3.97426 11.3596 4.24599C11.5314 4.51772 11.7701 4.7408 12.0528 4.89389C12.3355 5.04698 12.6527 5.12494 12.9742 5.12032C13.1648 5.72817 13.2615 6.36157 13.2609 6.99861C13.2609 7.43061 13.2171 7.8526 13.1338 8.26019C12.7619 8.22313 12.3873 8.29789 12.0581 8.47491C11.7289 8.65193 11.46 8.92315 11.2858 9.25387C11.1116 9.58459 11.04 9.95977 11.0802 10.3314C11.1205 10.703 11.2707 11.0542 11.5116 11.34C10.7627 12.119 9.82486 12.691 8.78935 13C8.66774 12.621 8.42894 12.2904 8.10735 12.0559C7.78576 11.8213 7.398 11.6949 6.99997 11.6949C6.60193 11.6949 6.21417 11.8213 5.89258 12.0559C5.57099 12.2904 5.33219 12.621 5.21059 13Z" stroke="#414141" stroke-linejoin="round"/>
<path d="M6.99999 9.1898C7.28776 9.1898 7.57271 9.13311 7.83857 9.02299C8.10444 8.91287 8.34601 8.75145 8.54949 8.54797C8.75298 8.34448 8.91439 8.10291 9.02452 7.83705C9.13464 7.57118 9.19132 7.28623 9.19132 6.99846C9.19132 6.71069 9.13464 6.42574 9.02452 6.15988C8.91439 5.89401 8.75298 5.65244 8.54949 5.44896C8.34601 5.24547 8.10444 5.08406 7.83857 4.97393C7.57271 4.86381 7.28776 4.80713 6.99999 4.80713C6.41881 4.80713 5.86144 5.038 5.45048 5.44896C5.03953 5.85991 4.80865 6.41728 4.80865 6.99846C4.80865 7.57964 5.03953 8.13701 5.45048 8.54797C5.86144 8.95892 6.41881 9.1898 6.99999 9.1898Z" stroke="#414141" stroke-linejoin="round"/>
</svg>
