<svg width="14" height="14" viewBox="0 0 14 14" fill="none" xmlns="http://www.w3.org/2000/svg">
<path d="M6.59288 12.6084C6.72202 12.6837 6.7866 12.7214 6.87773 12.741C6.94845 12.7561 7.05163 12.7561 7.12235 12.741C7.21348 12.7214 7.27806 12.6837 7.4072 12.6084C8.54356 11.9455 11.6667 9.86298 11.6667 6.99972V4.20999C11.6667 3.74361 11.6667 3.51042 11.5904 3.30997C11.523 3.13289 11.4136 2.97488 11.2714 2.84961C11.1105 2.70781 10.8922 2.62593 10.4555 2.46217L7.32776 1.28928C7.20648 1.2438 7.14585 1.22107 7.08347 1.21205C7.02814 1.20406 6.97194 1.20406 6.91661 1.21205C6.85423 1.22107 6.7936 1.2438 6.67233 1.28928L3.54461 2.46217C3.10792 2.62593 2.88958 2.70781 2.72867 2.84961C2.58653 2.97488 2.47703 3.13289 2.40965 3.30997C2.33337 3.51042 2.33337 3.74361 2.33337 4.20999V6.99972C2.33337 9.86298 5.45652 11.9455 6.59288 12.6084Z" stroke="#414141" stroke-linecap="round" stroke-linejoin="round"/>
</svg>
