<svg width="14" height="12" viewBox="0 0 14 12" fill="none" xmlns="http://www.w3.org/2000/svg">
<path d="M3.99333 5.86126C3.9184 6.2178 3.68797 6.52217 3.36513 6.69102C3.01111 6.87618 2.58884 6.87618 2.23482 6.69102C1.91198 6.52217 1.68155 6.2178 1.60662 5.86126L1.58064 5.73764C1.50352 5.37068 1.58628 4.98825 1.80821 4.686L1.85029 4.6287C2.07227 4.32639 2.42492 4.14782 2.79998 4.14782C3.17503 4.14782 3.52768 4.32639 3.74966 4.6287L3.79174 4.686C4.01367 4.98825 4.09643 5.37068 4.01931 5.73764L3.99333 5.86126Z" stroke="#414141" stroke-linecap="round" stroke-linejoin="round"/>
<path d="M0.599976 9.2266C0.599976 9.43279 0.767123 9.59994 0.97331 9.59994H3.26211C3.40927 8.94613 3.80965 8.37454 4.37499 8.01296C4.27324 7.94038 4.16128 7.87988 4.04078 7.8339L3.95641 7.8017C3.21165 7.51749 2.3883 7.51749 1.64354 7.8017L1.55917 7.83389C0.981576 8.05431 0.599976 8.60838 0.599976 9.2266Z" stroke="#414141" stroke-linecap="round" stroke-linejoin="round"/>
<path d="M13.0266 9.59998H10.7379C10.5907 8.94616 10.1903 8.37457 9.62499 8.01298C9.72673 7.94041 9.83869 7.87992 9.95917 7.83394L10.0435 7.80174C10.7883 7.51753 11.6116 7.51753 12.3564 7.80174L12.4408 7.83394C13.0184 8.05436 13.4 8.60842 13.4 9.22665C13.4 9.43283 13.2328 9.59998 13.0266 9.59998Z" stroke="#414141" stroke-linecap="round" stroke-linejoin="round"/>
<path d="M10.0066 5.8613C10.0815 6.21784 10.312 6.52221 10.6348 6.69106C10.9888 6.87622 11.4111 6.87622 11.7651 6.69106C12.088 6.52221 12.3184 6.21784 12.3933 5.8613L12.4193 5.73768C12.4964 5.37072 12.4137 4.98829 12.1917 4.68605L12.1497 4.62874C11.9277 4.32643 11.575 4.14787 11.2 4.14787C10.8249 4.14787 10.4723 4.32643 10.2503 4.62874L10.2082 4.68605C9.98628 4.98829 9.90352 5.37072 9.98064 5.73768L10.0066 5.8613Z" stroke="#414141" stroke-linecap="round" stroke-linejoin="round"/>
<path d="M10.16 10.8H3.83998C3.48651 10.8 3.19998 10.5134 3.19998 10.16C3.19998 9.10066 3.85524 8.15179 4.84588 7.7766L5.01219 7.71361C6.29299 7.22852 7.70696 7.22852 8.98776 7.71361L9.15407 7.7766C10.1447 8.15179 10.8 9.10066 10.8 10.16C10.8 10.5134 10.5134 10.8 10.16 10.8Z" stroke="#414141" stroke-linecap="round" stroke-linejoin="round"/>
<path d="M6.02824 5.81556C6.63747 6.1318 7.36248 6.1318 7.97171 5.81556C8.53205 5.52469 8.93263 4.99812 9.06341 4.38048L9.10435 4.18717C9.23859 3.55321 9.09481 2.89212 8.70939 2.37118L8.64334 2.28189C8.25785 1.76085 7.64811 1.45349 6.99998 1.45349C6.35184 1.45349 5.7421 1.76085 5.35662 2.28189L5.29056 2.37118C4.90514 2.89212 4.76136 3.55321 4.8956 4.18717L4.93654 4.38048C5.06732 4.99812 5.4679 5.52469 6.02824 5.81556Z" stroke="#414141" stroke-linecap="round" stroke-linejoin="round"/>
</svg>
