<svg width="154" height="303" viewBox="0 0 154 303" fill="none" xmlns="http://www.w3.org/2000/svg">
<g clip-path="url(#clip0_477_2379)">
<path d="M118.931 114.105C118.482 112.308 116.682 94.7972 116.232 92.1093C115.782 89.4213 115.34 77.7428 111.741 73.2582C108.142 68.7736 89.2611 62.9343 88.3614 62.036C87.8687 61.544 87.076 58.0362 86.7904 55.0773C86.6421 53.7339 86.6421 52.3782 86.7904 51.0348C87.6902 50.1364 87.2403 46.9993 87.2403 46.9993C89.4896 47.8906 89.9395 43.8551 90.3823 43.4345C90.825 43.0138 91.7319 40.2903 91.282 39.3919C90.8321 38.4936 89.4897 38.9427 89.4897 38.9427C89.4897 38.9427 89.9395 28.1697 85.0195 25.0041C80.7349 22.2734 74.0297 22.2734 69.7309 25.0041C64.7894 28.1412 65.2392 38.9142 65.2392 38.9142C65.2392 38.9142 63.8896 38.465 63.4398 39.3634C62.9899 40.2617 63.8896 42.9283 64.3395 43.406C64.7894 43.8836 65.2393 47.8906 67.4886 46.9708C67.4886 46.9708 67.0387 50.1079 67.9385 51.0063C68.0823 52.35 68.0823 53.7051 67.9385 55.0488C67.6529 58.0077 66.8531 61.5155 66.3604 62.0075C65.4606 62.9058 46.1303 68.7379 42.5384 73.2297C38.9466 77.7214 38.4895 89.3857 38.0397 92.0807C37.5898 94.7758 35.7475 112.301 35.3119 114.105C34.8763 115.908 33.5124 124.878 34.4121 132.057C35.3119 139.237 37.9826 153.603 37.9826 154.951C37.9826 156.298 37.9826 165.275 38.4324 166.173C38.8823 167.071 42.0029 173.353 44.2737 173.802C46.5445 174.251 49.6722 174.7 49.6722 173.802C49.6722 172.904 46.3017 170.437 45.8518 168.64C45.4019 166.843 44.0523 165.496 45.4019 164.597C45.7813 164.342 46.1352 164.051 46.4588 163.728C46.6511 164.409 46.7259 165.118 46.6801 165.824C46.6801 167.036 47.2871 168.861 47.9012 168.861C48.5153 168.861 48.5082 167.036 48.5082 165.218C48.5082 163.4 49.1152 162.18 49.1152 160.94C48.9849 160.122 48.7246 159.33 48.344 158.594C48.2815 158.337 48.2004 158.084 48.1012 157.838C46.7515 154.694 44.5307 153.347 44.0523 151.55C43.5739 149.753 47.6227 131.351 47.2014 127.309C46.7801 123.266 45.8518 119.231 46.7515 116.536C47.6513 113.841 50.7933 102.618 51.2432 99.4743C51.2432 99.4743 53.4925 110.697 54.8136 115.637C56.1346 120.578 53.9138 125.961 54.3637 130.895C54.8136 135.829 52.5642 146.16 52.1143 150.202C51.6645 154.245 49.4151 165.011 49.8649 175.784C50.3148 186.557 52.1715 195.12 52.1715 197.815C52.1715 200.51 52.1715 208.588 51.2717 211.732C49.6254 218.349 49.4718 225.248 50.8218 231.931C52.6213 241.356 55.3206 253.477 55.3206 257.063C55.3206 260.649 56.2203 261.106 55.3206 263.801C54.4208 266.496 54.4208 270.082 52.6213 271.879C50.8218 273.675 46.7801 276.812 49.9221 278.609C53.0641 280.406 56.2203 281.304 58.4911 280.406C60.7619 279.508 63.4326 279.058 63.4326 275.465C63.4326 271.872 63.4326 270.531 64.3324 270.531C65.2321 270.531 65.682 268.734 65.2321 266.966C64.7822 265.198 63.8825 264.278 63.8825 262.931C63.8825 261.583 64.3324 259.366 63.8825 257.99C63.2279 255.963 63.0736 253.808 63.4326 251.709C63.8825 249.014 67.4815 230.163 67.4815 225.222C67.4815 220.281 65.682 215.347 67.0316 211.761C68.3812 208.174 69.7237 205.472 70.602 199.191C71.4804 192.91 75.5507 172.255 75.5507 166.872C75.9792 167.071 76.4334 167.211 76.9003 167.285H77.1217H77.3502C77.8167 167.209 78.2707 167.07 78.6998 166.872C78.6998 172.255 82.7415 192.902 83.6413 199.191C84.541 205.479 85.8906 208.167 87.2117 211.761C88.5328 215.354 86.7618 220.316 86.7618 225.222C86.7618 230.127 90.3323 249.014 90.8036 251.709C91.1626 253.808 91.0083 255.963 90.3537 257.99C89.911 259.337 90.3537 261.555 90.3537 262.931C90.3537 264.307 89.4611 265.17 89.0112 266.966C88.5613 268.763 89.0112 270.531 89.911 270.531C90.8107 270.531 90.8036 271.879 90.8036 275.465C90.8036 279.051 93.5028 279.508 95.7522 280.406C98.0016 281.304 101.144 280.406 104.321 278.609C107.499 276.812 103.421 273.675 101.622 271.879C99.8225 270.082 99.8296 266.489 98.9299 263.801C98.0301 261.113 98.9299 260.656 98.9299 257.063C98.9299 253.47 101.622 241.378 103.421 231.931C104.772 225.248 104.618 218.349 102.972 211.732C102.072 208.588 102.072 200.51 102.072 197.815C102.072 195.12 103.871 186.593 104.321 175.82C104.771 165.047 102.522 154.274 102.072 150.238C101.622 146.203 99.3797 135.872 99.8296 130.931C100.279 125.99 98.0301 120.607 99.3797 115.673C100.729 110.739 102.95 99.5099 102.95 99.5099C103.4 102.654 106.521 113.876 107.449 116.571C108.377 119.266 107.449 123.302 106.999 127.344C106.549 131.387 110.569 149.789 110.148 151.586C109.727 153.382 107.449 154.73 106.099 157.874C105.929 158.262 105.818 158.673 105.771 159.093C105.356 159.871 105.072 160.712 104.928 161.582C104.928 162.794 105.535 164.013 105.535 165.859C105.535 167.706 105.535 169.503 106.142 169.503C106.749 169.503 107.363 167.685 107.363 166.465C107.287 165.56 107.434 164.649 107.792 163.813C108.102 164.116 108.439 164.39 108.799 164.633C110.148 165.531 108.799 166.879 108.349 168.676C107.899 170.472 104.528 172.953 104.528 173.838C104.528 174.722 107.67 174.287 109.92 173.838C112.169 173.388 115.318 167.1 115.768 166.209C116.218 165.318 116.211 156.327 116.211 154.986C116.211 153.646 118.91 139.301 119.781 132.093C120.652 124.885 119.381 115.866 118.931 114.105Z" fill="url(#paint0_linear_477_2379)"/>
<g style="mix-blend-mode:color-dodge">
<path opacity="0.6" d="M8.51953 15.4355H145.481" stroke="#92E3A9" stroke-width="0.75" stroke-miterlimit="10"/>
<path opacity="0.6" d="M8.51953 24.1553H145.481" stroke="#92E3A9" stroke-width="0.75" stroke-miterlimit="10"/>
<path opacity="0.6" d="M8.51953 32.8682H145.481" stroke="#92E3A9" stroke-width="0.75" stroke-miterlimit="10"/>
<path opacity="0.6" d="M8.51953 41.5801H145.481" stroke="#92E3A9" stroke-width="0.75" stroke-miterlimit="10"/>
<path opacity="0.6" d="M8.51953 50.2998H145.481" stroke="#92E3A9" stroke-width="0.75" stroke-miterlimit="10"/>
<path opacity="0.6" d="M8.51953 59.0127H145.481" stroke="#92E3A9" stroke-width="0.75" stroke-miterlimit="10"/>
<path opacity="0.6" d="M8.51953 67.7256H145.481" stroke="#92E3A9" stroke-width="0.75" stroke-miterlimit="10"/>
<path opacity="0.6" d="M8.51953 76.4375H145.481" stroke="#92E3A9" stroke-width="0.75" stroke-miterlimit="10"/>
<path opacity="0.6" d="M8.51953 85.1572H145.481" stroke="#92E3A9" stroke-width="0.75" stroke-miterlimit="10"/>
<path opacity="0.6" d="M8.51953 93.8701H145.481" stroke="#92E3A9" stroke-width="0.75" stroke-miterlimit="10"/>
<path opacity="0.6" d="M8.51953 102.582H145.481" stroke="#92E3A9" stroke-width="0.75" stroke-miterlimit="10"/>
<path opacity="0.6" d="M8.51953 111.302H145.481" stroke="#92E3A9" stroke-width="0.75" stroke-miterlimit="10"/>
<path opacity="0.6" d="M8.51953 120.015H145.481" stroke="#92E3A9" stroke-width="0.75" stroke-miterlimit="10"/>
<path opacity="0.6" d="M8.51953 128.728H145.481" stroke="#92E3A9" stroke-width="2" stroke-miterlimit="10"/>
<path opacity="0.6" d="M8.51953 137.439H145.481" stroke="#92E3A9" stroke-width="3" stroke-miterlimit="10"/>
<path opacity="0.6" d="M8.51953 146.159H145.481" stroke="#92E3A9" stroke-width="4" stroke-miterlimit="10"/>
<path opacity="0.6" d="M8.51953 154.872H145.481" stroke="#92E3A9" stroke-width="5" stroke-miterlimit="10"/>
<path opacity="0.6" d="M8.51953 163.585H145.481" stroke="#92E3A9" stroke-width="0.75" stroke-miterlimit="10"/>
<path opacity="0.6" d="M8.51953 172.297H145.481" stroke="#92E3A9" stroke-width="0.75" stroke-miterlimit="10"/>
<path opacity="0.6" d="M8.51953 181.017H145.481" stroke="#92E3A9" stroke-width="0.75" stroke-miterlimit="10"/>
<path opacity="0.6" d="M8.51953 189.729H145.481" stroke="#92E3A9" stroke-width="0.75" stroke-miterlimit="10"/>
<path opacity="0.6" d="M8.51953 198.441H145.481" stroke="#92E3A9" stroke-width="0.75" stroke-miterlimit="10"/>
<path opacity="0.6" d="M8.51953 207.161H145.481" stroke="#92E3A9" stroke-width="0.75" stroke-miterlimit="10"/>
<path opacity="0.6" d="M8.51953 215.874H145.481" stroke="#92E3A9" stroke-width="0.75" stroke-miterlimit="10"/>
<path opacity="0.6" d="M8.51953 224.587H145.481" stroke="#92E3A9" stroke-width="0.75" stroke-miterlimit="10"/>
<path opacity="0.6" d="M8.51953 233.299H145.481" stroke="#92E3A9" stroke-width="0.75" stroke-miterlimit="10"/>
<path opacity="0.6" d="M8.51953 242.019H145.481" stroke="#92E3A9" stroke-width="0.75" stroke-miterlimit="10"/>
<path opacity="0.6" d="M8.51953 250.731H145.481" stroke="#92E3A9" stroke-width="0.75" stroke-miterlimit="10"/>
<path opacity="0.6" d="M8.51953 259.444H145.481" stroke="#92E3A9" stroke-width="0.75" stroke-miterlimit="10"/>
<path opacity="0.6" d="M8.51953 268.164H145.481" stroke="#92E3A9" stroke-width="0.75" stroke-miterlimit="10"/>
<path opacity="0.6" d="M8.51953 276.876H145.481" stroke="#92E3A9" stroke-width="0.75" stroke-miterlimit="10"/>
<path opacity="0.6" d="M8.51953 294.972H145.481" stroke="#92E3A9" stroke-width="0.75" stroke-miterlimit="10"/>
<path opacity="0.6" d="M8.51953 285.589H145.481" stroke="#92E3A9" stroke-width="0.75" stroke-miterlimit="10"/>
</g>
<path d="M1.34277 302.643H143.41L152.658 290.658V5.9533H67.0959L62.4686 0.356445H1.34277V302.643Z" stroke="#008955" stroke-linejoin="round"/>
<path d="M1.34249 203.348C0.986438 203.348 0.644961 203.207 0.393197 202.955C0.141432 202.704 0 202.363 0 202.008V52.5894C0 52.2339 0.141432 51.893 0.393197 51.6416C0.644961 51.3902 0.986438 51.249 1.34249 51.249C1.69854 51.249 2.03999 51.3902 2.29176 51.6416C2.54352 51.893 2.68497 52.2339 2.68497 52.5894V202.008C2.68497 202.363 2.54352 202.704 2.29176 202.955C2.03999 203.207 1.69854 203.348 1.34249 203.348Z" fill="#92E3A9"/>
<path d="M152.658 203.348C152.302 203.348 151.96 203.207 151.709 202.955C151.457 202.704 151.315 202.363 151.315 202.008V52.5894C151.315 52.2339 151.457 51.893 151.709 51.6416C151.96 51.3902 152.302 51.249 152.658 51.249C153.014 51.249 153.355 51.3902 153.607 51.6416C153.859 51.893 154 52.2339 154 52.5894V202.008C154 202.363 153.859 202.704 153.607 202.955C153.355 203.207 153.014 203.348 152.658 203.348Z" fill="#92E3A9"/>
<path d="M80.0059 6.3093H139.311L137.497 4.49121H82.1981L80.0059 6.3093Z" fill="#92E3A9"/>
</g>
<defs>
<linearGradient id="paint0_linear_477_2379" x1="77.1217" y1="280.755" x2="77.1217" y2="22.9578" gradientUnits="userSpaceOnUse">
<stop offset="0.01" stop-color="#008955"/>
<stop offset="1" stop-color="#92E3A9"/>
</linearGradient>
<clipPath id="clip0_477_2379">
<rect width="154" height="303" fill="white"/>
</clipPath>
</defs>
</svg>
