<svg width="25" height="24" viewBox="0 0 25 24" fill="none" xmlns="http://www.w3.org/2000/svg">
<path d="M3.51001 11.22V15.71C3.51001 20.2 5.31001 22 9.80001 22H15.19C19.68 22 21.48 20.2 21.48 15.71V11.22" stroke="white" stroke-width="1.5" stroke-linecap="round" stroke-linejoin="round"/>
<path d="M12.5 12C14.33 12 15.68 10.51 15.5 8.68L14.84 2H10.17L9.49999 8.68C9.31999 10.51 10.67 12 12.5 12Z" stroke="white" stroke-width="1.5" stroke-linecap="round" stroke-linejoin="round"/>
<path d="M18.81 12C20.83 12 22.31 10.36 22.11 8.35L21.83 5.6C21.47 3 20.47 2 17.85 2H14.8L15.5 9.01C15.67 10.66 17.16 12 18.81 12Z" stroke="white" stroke-width="1.5" stroke-linecap="round" stroke-linejoin="round"/>
<path d="M6.14 12C7.79 12 9.28 10.66 9.44 9.01L9.66 6.8L10.14 2H7.09C4.47001 2 3.47 3 3.11 5.6L2.84 8.35C2.64 10.36 4.12 12 6.14 12Z" stroke="white" stroke-width="1.5" stroke-linecap="round" stroke-linejoin="round"/>
<path d="M12.5 17C10.83 17 10 17.83 10 19.5V22H15V19.5C15 17.83 14.17 17 12.5 17Z" stroke="white" stroke-width="1.5" stroke-linecap="round" stroke-linejoin="round"/>
</svg>
