<svg width="14" height="14" viewBox="0 0 14 14" fill="none" xmlns="http://www.w3.org/2000/svg">
<path d="M6.41667 2.33333H4.55C3.56991 2.33333 3.07986 2.33333 2.70552 2.52407C2.37623 2.69185 2.10852 2.95957 1.94074 3.28885C1.75 3.6632 1.75 4.15324 1.75 5.13333V8.16667C1.75 8.70915 1.75 8.98039 1.80963 9.20293C1.97145 9.80684 2.44316 10.2786 3.04707 10.4404C3.26961 10.5 3.54085 10.5 4.08333 10.5V11.8624C4.08333 12.1732 4.08333 12.3286 4.14705 12.4084C4.20246 12.4779 4.28649 12.5182 4.37531 12.5182C4.47745 12.518 4.59881 12.421 4.84152 12.2268L6.23304 11.1136C6.5173 10.8862 6.65943 10.7725 6.8177 10.6916C6.95812 10.6199 7.10758 10.5674 7.26204 10.5357C7.43614 10.5 7.61816 10.5 7.98219 10.5H8.86667C9.84676 10.5 10.3368 10.5 10.7111 10.3093C11.0404 10.1415 11.3081 9.87377 11.4759 9.54448C11.6667 9.17014 11.6667 8.68009 11.6667 7.7V7.58333M11.7374 2.26256C12.4209 2.94598 12.4209 4.05402 11.7374 4.73744C11.054 5.42085 9.94598 5.42085 9.26256 4.73744C8.57915 4.05402 8.57915 2.94598 9.26256 2.26256C9.94598 1.57915 11.054 1.57915 11.7374 2.26256Z" stroke="#414141" stroke-linecap="round" stroke-linejoin="round"/>
</svg>
